<?xml version="1.0" encoding="UTF-8" standalone="no"?>
<!-- Created with Inkscape (http://www.inkscape.org/) -->

<svg
   width="210mm"
   height="297mm"
   viewBox="0 0 210 297"
   version="1.1"
   id="svg2244"
   inkscape:version="1.1.2 (0a00cf5339, 2022-02-04)"
   sodipodi:docname="ale logos 090723.svg"
   xmlns:inkscape="http://www.inkscape.org/namespaces/inkscape"
   xmlns:sodipodi="http://sodipodi.sourceforge.net/DTD/sodipodi-0.dtd"
   xmlns="http://www.w3.org/2000/svg"
   xmlns:svg="http://www.w3.org/2000/svg">
  <sodipodi:namedview
     id="namedview2246"
     pagecolor="#ffffff"
     bordercolor="#000000"
     borderopacity="0.25"
     inkscape:pageshadow="2"
     inkscape:pageopacity="0.0"
     inkscape:pagecheckerboard="0"
     inkscape:document-units="mm"
     showgrid="false"
     showguides="true"
     inkscape:guide-bbox="true"
     inkscape:snap-global="false"
     inkscape:snap-bbox="true"
     inkscape:zoom="9.1416281"
     inkscape:cx="282.55361"
     inkscape:cy="501.11424"
     inkscape:window-width="1920"
     inkscape:window-height="1011"
     inkscape:window-x="0"
     inkscape:window-y="32"
     inkscape:window-maximized="1"
     inkscape:current-layer="layer1" />
  <defs
     id="defs2241" />
  <g
     inkscape:label="Layer 1"
     inkscape:groupmode="layer"
     id="layer1">
    <rect
       style="opacity:1;vector-effect:non-scaling-stroke;fill:#333333;fill-opacity:1;stroke:#000000;stroke-width:0.00123466;stroke-linecap:butt;stroke-miterlimit:4;stroke-dasharray:none;stroke-opacity:1;-inkscape-stroke:hairline"
       id="rect33279"
       width="40.148884"
       height="28.835562"
       x="58.933907"
       y="118.1693" />
    <g
       id="g33197">
      <path
         id="path27483"
         style="color:#000000;opacity:1;fill:#00f1ff;stroke-width:3.69656;stroke-linecap:square;-inkscape-stroke:none;fill-opacity:1"
         d="M 289.88477 501.97656 L 294.89844 513.37305 L 296.17578 513.37305 L 295.94141 512.8418 L 291.21484 502.0957 C 290.77724 502.0525 290.33446 502.0115 289.88477 501.97656 z M 280.36328 502.1543 C 280.21823 502.1714 280.07648 502.18648 279.92969 502.20508 C 279.62762 502.24338 279.32141 502.28518 279.01172 502.33008 L 274.37305 512.8418 L 274.13477 513.37305 L 275.41797 513.37305 L 280.36328 502.1543 z M 297.38672 502.85547 L 297.38672 513.37305 L 306.90234 513.37305 L 306.90234 512.13281 L 298.62695 512.13281 L 298.62695 503.00391 C 298.2131 502.95641 297.79869 502.90741 297.38672 502.85547 z M 309.39062 503.09766 C 308.96174 503.14826 308.54057 503.19226 308.12695 503.22852 L 308.12695 513.38086 L 320.39648 513.38086 L 320.39648 512.11914 L 309.39062 512.11914 L 309.39062 503.09766 z "
         transform="scale(0.26458333)" />
      <path
         id="path27475"
         style="color:#000000;opacity:1;fill:#4d4d4d;stroke-width:3.69656;stroke-linecap:square;-inkscape-stroke:none"
         d="M 285.17383 488.36328 L 279.9707 500.15234 C 280.44941 500.04314 280.91934 499.94351 281.37891 499.85156 L 285.16797 491.25586 L 288.57227 498.99414 C 289.0019 498.97999 289.42377 498.97344 289.83984 498.97266 L 285.17383 488.36328 z M 308.12695 488.37109 L 308.12695 500.53711 C 308.54121 500.54084 308.96228 500.53896 309.39062 500.53125 L 309.39062 489.63281 L 319.96094 489.63281 L 319.96094 488.37109 L 308.12695 488.37109 z M 297.38672 488.37891 L 297.38672 499.53516 C 297.79935 499.58796 298.21309 499.64248 298.62695 499.69727 L 298.62695 488.37891 L 297.38672 488.37891 z "
         transform="scale(0.26458333)" />
      <path
         id="path27256"
         style="color:#000000;opacity:1;vector-effect:non-scaling-stroke;fill:#00f1ff;fill-opacity:1;stroke-width:5.14201;-inkscape-stroke:hairline"
         d="M 326.57422 498.28516 C 313.35778 502.57507 305.94446 501.59854 298.98633 500.67773 C 294.04361 500.02248 289.33285 499.39356 282.66992 500.54492 C 278.62175 501.24436 273.84895 502.60291 267.86914 505.01172 C 272.53094 503.50142 276.47464 502.64324 279.92969 502.20508 C 286.1285 501.41841 290.76 501.98413 295.16211 502.56641 C 303.24036 503.63529 310.56023 504.74569 326.57422 498.28516 z M 290.3457 500.6875 C 293.46034 500.68463 295.89771 501.01231 298.43164 501.35352 C 302.82212 501.94278 307.4994 502.56918 316.03125 501.38086 C 305.65322 503.30343 301.04062 502.62929 295.94336 501.94531 C 293.16568 501.57265 290.24186 501.19806 286.2793 501.28711 C 284.07068 501.33662 281.53861 501.53105 278.5293 501.94922 C 282.40445 501.23266 285.47856 500.87528 288.07227 500.74609 C 288.8727 500.7062 289.62694 500.68816 290.3457 500.6875 z "
         transform="scale(0.26458333)" />
    </g>
  </g>
</svg>
