<?xml version="1.0" encoding="UTF-8" standalone="no"?>
<!-- Created with Inkscape (http://www.inkscape.org/) -->

<svg
   width="210mm"
   height="297mm"
   viewBox="0 0 210 297"
   version="1.1"
   id="svg5"
   sodipodi:docname="galaxy logos 090723.svg"
   inkscape:version="1.1.2 (0a00cf5339, 2022-02-04)"
   xmlns:inkscape="http://www.inkscape.org/namespaces/inkscape"
   xmlns:sodipodi="http://sodipodi.sourceforge.net/DTD/sodipodi-0.dtd"
   xmlns="http://www.w3.org/2000/svg"
   xmlns:svg="http://www.w3.org/2000/svg">
  <sodipodi:namedview
     id="namedview7"
     pagecolor="#ffffff"
     bordercolor="#000000"
     borderopacity="0.25"
     inkscape:pageshadow="2"
     inkscape:pageopacity="0.0"
     inkscape:pagecheckerboard="0"
     inkscape:document-units="px"
     showgrid="false"
     inkscape:zoom="1.0901354"
     inkscape:cx="346.74593"
     inkscape:cy="618.27184"
     inkscape:window-width="1920"
     inkscape:window-height="1011"
     inkscape:window-x="0"
     inkscape:window-y="32"
     inkscape:window-maximized="1"
     inkscape:current-layer="layer1" />
  <defs
     id="defs2">
    <inkscape:path-effect
       effect="bend_path"
       id="path-effect1457"
       is_visible="true"
       lpeversion="1"
       bendpath="m 44.6928,147.1445 c 24.611541,-22.27209 51.475706,-31.74712 88.1392,0"
       prop_scale="1.0946299"
       scale_y_rel="false"
       vertical="false"
       hide_knot="false"
       bendpath-nodetypes="cc" />
    <inkscape:path-effect
       effect="bend_path"
       id="path-effect1257"
       is_visible="true"
       lpeversion="1"
       bendpath="M 44.7928,147.1445 H 132.932"
       prop_scale="1"
       scale_y_rel="false"
       vertical="false"
       hide_knot="false" />
  </defs>
  <g
     inkscape:label="Layer 1"
     inkscape:groupmode="layer"
     id="layer1">
    <g
       id="g2239"
       transform="matrix(0.43612589,0,0,0.43612589,57.621131,79.751012)">
      <g
         id="g797"
         transform="rotate(5.9476642,238.99146,774.00778)"
         inkscape:transform-center-x="-50.445322"
         inkscape:transform-center-y="-12.760128">
        <path
           style="opacity:1;fill:#0000ff;fill-opacity:1;stroke:none;stroke-width:0.0762476px;stroke-opacity:1"
           d="m 48.047366,144.20106 c 0.38146,0.44917 0.564145,1.0362 0.513401,1.62773 9.7e-5,4e-4 1.94e-4,8e-4 2.9e-4,0.001 -0.05069,0.59182 -0.330371,1.14261 -0.778687,1.53617 -1.94e-4,1.7e-4 -3.89e-4,3.4e-4 -5.84e-4,5.2e-4 -0.448292,0.39355 -1.032024,0.59926 -1.625666,0.57318 -1.39e-4,1.3e-4 -2.77e-4,2.5e-4 -4.16e-4,3.7e-4 -0.594007,-0.027 -1.151483,-0.28424 -1.546077,-0.71966 l -7.35e-4,-8.1e-4 c -0.822327,-0.90808 -0.729283,-2.33939 0.23967,-3.19185 2.58e-4,-2.3e-4 5.16e-4,-4.6e-4 7.74e-4,-6.9e-4 0.963926,-0.84657 2.403567,-0.76163 3.19803,0.17385 z"
           id="path783" />
        <path
           style="opacity:1;fill:#1105e8;fill-opacity:1;stroke:none;stroke-width:0.104332px;stroke-opacity:1"
           d="m 60.807018,134.92322 c 0.412718,0.69001 0.527875,1.52166 0.340391,2.30242 6.7e-5,3.9e-4 1.33e-4,7.8e-4 2e-4,0.001 -0.187717,0.78178 -0.663832,1.45897 -1.330389,1.89463 -2.11e-4,1.4e-4 -4.23e-4,2.8e-4 -6.35e-4,4.2e-4 -0.66655,0.43566 -1.480067,0.60123 -2.273634,0.45762 -1.21e-4,8e-5 -2.42e-4,1.7e-4 -3.62e-4,2.5e-4 -0.792819,-0.14355 -1.506105,-0.58444 -1.97025,-1.24202 l -6.31e-4,-8.9e-4 c -0.966904,-1.37064 -0.572101,-3.31997 0.926284,-4.29781 2.28e-4,-1.5e-4 4.57e-4,-3e-4 6.85e-4,-4.5e-4 1.498199,-0.97769 3.447824,-0.55398 4.308341,0.88467 z"
           id="path785" />
        <path
           style="opacity:1;fill:#220bd2;fill-opacity:1;stroke:none;stroke-width:0.132417px;stroke-opacity:1"
           d="m 75.217748,128.55311 c 0.279028,0.98036 0.148743,2.03938 -0.309627,2.93512 -1.36e-4,4e-5 -2.72e-4,8e-5 -4.08e-4,1.3e-4 -0.459501,0.89813 -1.21935,1.58003 -2.135316,1.91744 -1.64e-4,6e-5 -3.28e-4,1.2e-4 -4.92e-4,1.8e-4 -0.915975,0.33742 -1.941683,0.31177 -2.876786,-0.0761 -2.74e-4,-2.8e-4 -5.49e-4,-5.6e-4 -8.24e-4,-8.4e-4 -0.933044,-0.38715 -1.714961,-1.11488 -2.132366,-2.04821 l -4.47e-4,-0.001 c -0.870149,-1.9465 0.14855,-4.31467 2.352718,-5.12031 1.89e-4,-7e-5 3.77e-4,-1.4e-4 5.66e-4,-2.1e-4 2.204177,-0.80562 4.520302,0.34653 5.102982,2.39378 z"
           id="path787" />
        <path
           style="opacity:1;fill:#3310bb;fill-opacity:1;stroke:none;stroke-width:0.160502px;stroke-opacity:1"
           d="m 90.817082,126.83784 c -0.07977,1.23144 -0.657938,2.38576 -1.51875,3.22648 -1.04e-4,-1e-5 -2.08e-4,-1e-5 -3.13e-4,-1e-5 -0.863259,0.84312 -1.960671,1.32905 -3.090242,1.37859 -1.34e-4,1e-5 -2.68e-4,1e-5 -4.01e-4,2e-5 -0.547146,0.024 -1.089002,-0.0542 -1.607749,-0.22606 -0.559488,-0.18944 -1.097985,-0.4883 -1.581197,-0.88804 -1.04e-4,1e-5 -2.07e-4,2e-5 -3.11e-4,3e-5 -0.927411,-0.7673 -1.601934,-1.86844 -1.786551,-3.08869 l -1.63e-4,-0.001 c -0.294273,-1.9462 0.76264,-3.83021 2.654774,-4.68171 0,0 0,0 0,0 0.58674,-0.25935 1.243104,-0.41619 1.937006,-0.44332 1.66e-4,-1e-5 3.32e-4,-1e-5 4.98e-4,-2e-5 3.048364,-0.11917 5.159176,2.16456 4.993399,4.72381 z"
           id="path789" />
        <path
           style="opacity:1;fill:#4416a5;fill-opacity:1;stroke:none;stroke-width:0.188587px;stroke-opacity:1"
           d="m 106.17576,130.2762 c -0.51844,1.35722 -1.57123,2.457 -2.83852,3.1003 l -3.6e-4,0.001 c -1.27144,0.64543 -2.68405,0.80339 -3.978972,0.45119 -9.8e-5,-3e-5 -1.96e-4,-5e-5 -2.94e-4,-8e-5 -1.294618,-0.35211 -2.423071,-1.20065 -3.189938,-2.39472 -6.8e-5,-2e-5 -1.36e-4,-3e-5 -2.05e-4,-4e-5 -0.763397,-1.1888 -1.126936,-2.66698 -0.900619,-4.09902 l 1.71e-4,-10e-4 c 0.473321,-2.99352 3.644374,-5.01827 6.967317,-4.12064 8e-5,2e-5 1.6e-4,5e-5 2.4e-4,7e-5 3.44692,0.93231 5.01839,4.24297 3.94118,7.06298 z"
           id="path791" />
        <path
           style="opacity:1;fill:#551b8e;fill-opacity:1;stroke:none;stroke-width:0.216671px;stroke-opacity:1"
           d="m 120.16336,137.50662 c -0.91015,1.40275 -2.35515,2.37865 -3.95322,2.77304 -1.60165,0.39449 -3.24968,0.18575 -4.62969,-0.56756 -1.37907,-0.75279 -2.43068,-2.01661 -2.96276,-3.56252 -0.53026,-1.54062 -0.51277,-3.28558 0.15003,-4.81525 1.38403,-3.19424 5.43289,-4.53212 8.83431,-2.68528 3.5e-4,1.9e-4 7.1e-4,3.8e-4 0.001,5.8e-4 3.40139,1.84687 4.45748,5.93298 2.56027,8.85699 z"
           id="path793" />
        <path
           style="opacity:1;fill:#672178;fill-opacity:1;stroke:none;stroke-width:0.244756px;stroke-opacity:1"
           d="m 132.74641,147.07116 c -1.23542,1.42887 -3.00526,2.2973 -4.88169,2.46974 -1.87777,0.17333 -3.72484,-0.35853 -5.16941,-1.47468 -1.4447,-1.11626 -2.40573,-2.75261 -2.7114,-4.59732 -0.30378,-1.83795 0.0666,-3.77945 1.11207,-5.34914 2.18364,-3.27869 6.92066,-3.99364 10.33135,-1.36107 3.47912,2.68538 3.88304,7.34702 1.31908,10.31247 z"
           id="path795" />
      </g>
      <g
         id="g1941"
         transform="rotate(5.9476642,238.99146,774.00778)"
         inkscape:transform-center-x="-53.118212"
         inkscape:transform-center-y="-15.869796">
        <path
           style="opacity:1;fill:#0000ff;fill-opacity:1;stroke:none;stroke-width:0.0762476px;stroke-opacity:1"
           d="m 48.047366,144.20106 c 0.38146,0.44917 0.564145,1.0362 0.513401,1.62773 9.7e-5,4e-4 1.94e-4,8e-4 2.9e-4,0.001 -0.05069,0.59182 -0.330371,1.14261 -0.778687,1.53617 -1.94e-4,1.7e-4 -3.89e-4,3.4e-4 -5.84e-4,5.2e-4 -0.448292,0.39355 -1.032024,0.59926 -1.625666,0.57318 -1.39e-4,1.3e-4 -2.77e-4,2.5e-4 -4.16e-4,3.7e-4 -0.594007,-0.027 -1.151483,-0.28424 -1.546077,-0.71966 l -7.35e-4,-8.1e-4 c -0.822327,-0.90808 -0.729283,-2.33939 0.23967,-3.19185 2.58e-4,-2.3e-4 5.16e-4,-4.6e-4 7.74e-4,-6.9e-4 0.963926,-0.84657 2.403567,-0.76163 3.19803,0.17385 z"
           id="path1927" />
        <path
           style="opacity:1;fill:#1105e8;fill-opacity:1;stroke:none;stroke-width:0.104332px;stroke-opacity:1"
           d="m 60.807018,134.92322 c 0.412718,0.69001 0.527875,1.52166 0.340391,2.30242 6.7e-5,3.9e-4 1.33e-4,7.8e-4 2e-4,0.001 -0.187717,0.78178 -0.663832,1.45897 -1.330389,1.89463 -2.11e-4,1.4e-4 -4.23e-4,2.8e-4 -6.35e-4,4.2e-4 -0.66655,0.43566 -1.480067,0.60123 -2.273634,0.45762 -1.21e-4,8e-5 -2.42e-4,1.7e-4 -3.62e-4,2.5e-4 -0.792819,-0.14355 -1.506105,-0.58444 -1.97025,-1.24202 l -6.31e-4,-8.9e-4 c -0.966904,-1.37064 -0.572101,-3.31997 0.926284,-4.29781 2.28e-4,-1.5e-4 4.57e-4,-3e-4 6.85e-4,-4.5e-4 1.498199,-0.97769 3.447824,-0.55398 4.308341,0.88467 z"
           id="path1929" />
        <path
           style="opacity:1;fill:#220bd2;fill-opacity:1;stroke:none;stroke-width:0.132417px;stroke-opacity:1"
           d="m 75.217748,128.55311 c 0.279028,0.98036 0.148743,2.03938 -0.309627,2.93512 -1.36e-4,4e-5 -2.72e-4,8e-5 -4.08e-4,1.3e-4 -0.459501,0.89813 -1.21935,1.58003 -2.135316,1.91744 -1.64e-4,6e-5 -3.28e-4,1.2e-4 -4.92e-4,1.8e-4 -0.915975,0.33742 -1.941683,0.31177 -2.876786,-0.0761 -2.74e-4,-2.8e-4 -5.49e-4,-5.6e-4 -8.24e-4,-8.4e-4 -0.933044,-0.38715 -1.714961,-1.11488 -2.132366,-2.04821 l -4.47e-4,-0.001 c -0.870149,-1.9465 0.14855,-4.31467 2.352718,-5.12031 1.89e-4,-7e-5 3.77e-4,-1.4e-4 5.66e-4,-2.1e-4 2.204177,-0.80562 4.520302,0.34653 5.102982,2.39378 z"
           id="path1931" />
        <path
           style="opacity:1;fill:#3310bb;fill-opacity:1;stroke:none;stroke-width:0.160502px;stroke-opacity:1"
           d="m 90.817082,126.83784 c -0.07977,1.23144 -0.657938,2.38576 -1.51875,3.22648 -1.04e-4,-1e-5 -2.08e-4,-1e-5 -3.13e-4,-1e-5 -0.863259,0.84312 -1.960671,1.32905 -3.090242,1.37859 -1.34e-4,1e-5 -2.68e-4,1e-5 -4.01e-4,2e-5 -0.547146,0.024 -1.089002,-0.0542 -1.607749,-0.22606 -0.559488,-0.18944 -1.097985,-0.4883 -1.581197,-0.88804 -1.04e-4,1e-5 -2.07e-4,2e-5 -3.11e-4,3e-5 -0.927411,-0.7673 -1.601934,-1.86844 -1.786551,-3.08869 l -1.63e-4,-0.001 c -0.294273,-1.9462 0.76264,-3.83021 2.654774,-4.68171 0,0 0,0 0,0 0.58674,-0.25935 1.243104,-0.41619 1.937006,-0.44332 1.66e-4,-1e-5 3.32e-4,-1e-5 4.98e-4,-2e-5 3.048364,-0.11917 5.159176,2.16456 4.993399,4.72381 z"
           id="path1933" />
        <path
           style="opacity:1;fill:#4416a5;fill-opacity:1;stroke:none;stroke-width:0.188587px;stroke-opacity:1"
           d="m 106.17576,130.2762 c -0.51844,1.35722 -1.57123,2.457 -2.83852,3.1003 l -3.6e-4,0.001 c -1.27144,0.64543 -2.68405,0.80339 -3.978972,0.45119 -9.8e-5,-3e-5 -1.96e-4,-5e-5 -2.94e-4,-8e-5 -1.294618,-0.35211 -2.423071,-1.20065 -3.189938,-2.39472 -6.8e-5,-2e-5 -1.36e-4,-3e-5 -2.05e-4,-4e-5 -0.763397,-1.1888 -1.126936,-2.66698 -0.900619,-4.09902 l 1.71e-4,-10e-4 c 0.473321,-2.99352 3.644374,-5.01827 6.967317,-4.12064 8e-5,2e-5 1.6e-4,5e-5 2.4e-4,7e-5 3.44692,0.93231 5.01839,4.24297 3.94118,7.06298 z"
           id="path1935" />
        <path
           style="opacity:1;fill:#551b8e;fill-opacity:1;stroke:none;stroke-width:0.216671px;stroke-opacity:1"
           d="m 120.16336,137.50662 c -0.91015,1.40275 -2.35515,2.37865 -3.95322,2.77304 -1.60165,0.39449 -3.24968,0.18575 -4.62969,-0.56756 -1.37907,-0.75279 -2.43068,-2.01661 -2.96276,-3.56252 -0.53026,-1.54062 -0.51277,-3.28558 0.15003,-4.81525 1.38403,-3.19424 5.43289,-4.53212 8.83431,-2.68528 3.5e-4,1.9e-4 7.1e-4,3.8e-4 0.001,5.8e-4 3.40139,1.84687 4.45748,5.93298 2.56027,8.85699 z"
           id="path1937" />
        <path
           style="opacity:1;fill:#672178;fill-opacity:1;stroke:none;stroke-width:0.244756px;stroke-opacity:1"
           d="m 132.74641,147.07116 c -1.23542,1.42887 -3.00526,2.2973 -4.88169,2.46974 -1.87777,0.17333 -3.72484,-0.35853 -5.16941,-1.47468 -1.4447,-1.11626 -2.40573,-2.75261 -2.7114,-4.59732 -0.30378,-1.83795 0.0666,-3.77945 1.11207,-5.34914 2.18364,-3.27869 6.92066,-3.99364 10.33135,-1.36107 3.47912,2.68538 3.88304,7.34702 1.31908,10.31247 z"
           id="path1939" />
      </g>
      <g
         id="g1973"
         transform="rotate(35.947664,96.878595,250.11332)"
         inkscape:transform-center-x="-51.149108"
         inkscape:transform-center-y="18.751892">
        <path
           style="opacity:1;fill:#0000ff;fill-opacity:1;stroke:none;stroke-width:0.0762476px;stroke-opacity:1"
           d="m 48.047366,144.20106 c 0.38146,0.44917 0.564145,1.0362 0.513401,1.62773 9.7e-5,4e-4 1.94e-4,8e-4 2.9e-4,0.001 -0.05069,0.59182 -0.330371,1.14261 -0.778687,1.53617 -1.94e-4,1.7e-4 -3.89e-4,3.4e-4 -5.84e-4,5.2e-4 -0.448292,0.39355 -1.032024,0.59926 -1.625666,0.57318 -1.39e-4,1.3e-4 -2.77e-4,2.5e-4 -4.16e-4,3.7e-4 -0.594007,-0.027 -1.151483,-0.28424 -1.546077,-0.71966 l -7.35e-4,-8.1e-4 c -0.822327,-0.90808 -0.729283,-2.33939 0.23967,-3.19185 2.58e-4,-2.3e-4 5.16e-4,-4.6e-4 7.74e-4,-6.9e-4 0.963926,-0.84657 2.403567,-0.76163 3.19803,0.17385 z"
           id="path1959" />
        <path
           style="opacity:1;fill:#1105e8;fill-opacity:1;stroke:none;stroke-width:0.104332px;stroke-opacity:1"
           d="m 60.807018,134.92322 c 0.412718,0.69001 0.527875,1.52166 0.340391,2.30242 6.7e-5,3.9e-4 1.33e-4,7.8e-4 2e-4,0.001 -0.187717,0.78178 -0.663832,1.45897 -1.330389,1.89463 -2.11e-4,1.4e-4 -4.23e-4,2.8e-4 -6.35e-4,4.2e-4 -0.66655,0.43566 -1.480067,0.60123 -2.273634,0.45762 -1.21e-4,8e-5 -2.42e-4,1.7e-4 -3.62e-4,2.5e-4 -0.792819,-0.14355 -1.506105,-0.58444 -1.97025,-1.24202 l -6.31e-4,-8.9e-4 c -0.966904,-1.37064 -0.572101,-3.31997 0.926284,-4.29781 2.28e-4,-1.5e-4 4.57e-4,-3e-4 6.85e-4,-4.5e-4 1.498199,-0.97769 3.447824,-0.55398 4.308341,0.88467 z"
           id="path1961" />
        <path
           style="opacity:1;fill:#220bd2;fill-opacity:1;stroke:none;stroke-width:0.132417px;stroke-opacity:1"
           d="m 75.217748,128.55311 c 0.279028,0.98036 0.148743,2.03938 -0.309627,2.93512 -1.36e-4,4e-5 -2.72e-4,8e-5 -4.08e-4,1.3e-4 -0.459501,0.89813 -1.21935,1.58003 -2.135316,1.91744 -1.64e-4,6e-5 -3.28e-4,1.2e-4 -4.92e-4,1.8e-4 -0.915975,0.33742 -1.941683,0.31177 -2.876786,-0.0761 -2.74e-4,-2.8e-4 -5.49e-4,-5.6e-4 -8.24e-4,-8.4e-4 -0.933044,-0.38715 -1.714961,-1.11488 -2.132366,-2.04821 l -4.47e-4,-0.001 c -0.870149,-1.9465 0.14855,-4.31467 2.352718,-5.12031 1.89e-4,-7e-5 3.77e-4,-1.4e-4 5.66e-4,-2.1e-4 2.204177,-0.80562 4.520302,0.34653 5.102982,2.39378 z"
           id="path1963" />
        <path
           style="opacity:1;fill:#3310bb;fill-opacity:1;stroke:none;stroke-width:0.160502px;stroke-opacity:1"
           d="m 90.817082,126.83784 c -0.07977,1.23144 -0.657938,2.38576 -1.51875,3.22648 -1.04e-4,-1e-5 -2.08e-4,-1e-5 -3.13e-4,-1e-5 -0.863259,0.84312 -1.960671,1.32905 -3.090242,1.37859 -1.34e-4,1e-5 -2.68e-4,1e-5 -4.01e-4,2e-5 -0.547146,0.024 -1.089002,-0.0542 -1.607749,-0.22606 -0.559488,-0.18944 -1.097985,-0.4883 -1.581197,-0.88804 -1.04e-4,1e-5 -2.07e-4,2e-5 -3.11e-4,3e-5 -0.927411,-0.7673 -1.601934,-1.86844 -1.786551,-3.08869 l -1.63e-4,-0.001 c -0.294273,-1.9462 0.76264,-3.83021 2.654774,-4.68171 0,0 0,0 0,0 0.58674,-0.25935 1.243104,-0.41619 1.937006,-0.44332 1.66e-4,-1e-5 3.32e-4,-1e-5 4.98e-4,-2e-5 3.048364,-0.11917 5.159176,2.16456 4.993399,4.72381 z"
           id="path1965" />
        <path
           style="opacity:1;fill:#4416a5;fill-opacity:1;stroke:none;stroke-width:0.188587px;stroke-opacity:1"
           d="m 106.17576,130.2762 c -0.51844,1.35722 -1.57123,2.457 -2.83852,3.1003 l -3.6e-4,0.001 c -1.27144,0.64543 -2.68405,0.80339 -3.978972,0.45119 -9.8e-5,-3e-5 -1.96e-4,-5e-5 -2.94e-4,-8e-5 -1.294618,-0.35211 -2.423071,-1.20065 -3.189938,-2.39472 -6.8e-5,-2e-5 -1.36e-4,-3e-5 -2.05e-4,-4e-5 -0.763397,-1.1888 -1.126936,-2.66698 -0.900619,-4.09902 l 1.71e-4,-10e-4 c 0.473321,-2.99352 3.644374,-5.01827 6.967317,-4.12064 8e-5,2e-5 1.6e-4,5e-5 2.4e-4,7e-5 3.44692,0.93231 5.01839,4.24297 3.94118,7.06298 z"
           id="path1967" />
        <path
           style="opacity:1;fill:#551b8e;fill-opacity:1;stroke:none;stroke-width:0.216671px;stroke-opacity:1"
           d="m 120.16336,137.50662 c -0.91015,1.40275 -2.35515,2.37865 -3.95322,2.77304 -1.60165,0.39449 -3.24968,0.18575 -4.62969,-0.56756 -1.37907,-0.75279 -2.43068,-2.01661 -2.96276,-3.56252 -0.53026,-1.54062 -0.51277,-3.28558 0.15003,-4.81525 1.38403,-3.19424 5.43289,-4.53212 8.83431,-2.68528 3.5e-4,1.9e-4 7.1e-4,3.8e-4 0.001,5.8e-4 3.40139,1.84687 4.45748,5.93298 2.56027,8.85699 z"
           id="path1969" />
        <path
           style="opacity:1;fill:#672178;fill-opacity:1;stroke:none;stroke-width:0.244756px;stroke-opacity:1"
           d="m 132.74641,147.07116 c -1.23542,1.42887 -3.00526,2.2973 -4.88169,2.46974 -1.87777,0.17333 -3.72484,-0.35853 -5.16941,-1.47468 -1.4447,-1.11626 -2.40573,-2.75261 -2.7114,-4.59732 -0.30378,-1.83795 0.0666,-3.77945 1.11207,-5.34914 2.18364,-3.27869 6.92066,-3.99364 10.33135,-1.36107 3.47912,2.68538 3.88304,7.34702 1.31908,10.31247 z"
           id="path1971" />
      </g>
      <g
         id="g1989"
         transform="rotate(65.947664,83.332036,200.17436)"
         inkscape:transform-center-x="-36.991105"
         inkscape:transform-center-y="41.50405">
        <path
           style="opacity:1;fill:#0000ff;fill-opacity:1;stroke:none;stroke-width:0.0762476px;stroke-opacity:1"
           d="m 48.047366,144.20106 c 0.38146,0.44917 0.564145,1.0362 0.513401,1.62773 9.7e-5,4e-4 1.94e-4,8e-4 2.9e-4,0.001 -0.05069,0.59182 -0.330371,1.14261 -0.778687,1.53617 -1.94e-4,1.7e-4 -3.89e-4,3.4e-4 -5.84e-4,5.2e-4 -0.448292,0.39355 -1.032024,0.59926 -1.625666,0.57318 -1.39e-4,1.3e-4 -2.77e-4,2.5e-4 -4.16e-4,3.7e-4 -0.594007,-0.027 -1.151483,-0.28424 -1.546077,-0.71966 l -7.35e-4,-8.1e-4 c -0.822327,-0.90808 -0.729283,-2.33939 0.23967,-3.19185 2.58e-4,-2.3e-4 5.16e-4,-4.6e-4 7.74e-4,-6.9e-4 0.963926,-0.84657 2.403567,-0.76163 3.19803,0.17385 z"
           id="path1975" />
        <path
           style="opacity:1;fill:#1105e8;fill-opacity:1;stroke:none;stroke-width:0.104332px;stroke-opacity:1"
           d="m 60.807018,134.92322 c 0.412718,0.69001 0.527875,1.52166 0.340391,2.30242 6.7e-5,3.9e-4 1.33e-4,7.8e-4 2e-4,0.001 -0.187717,0.78178 -0.663832,1.45897 -1.330389,1.89463 -2.11e-4,1.4e-4 -4.23e-4,2.8e-4 -6.35e-4,4.2e-4 -0.66655,0.43566 -1.480067,0.60123 -2.273634,0.45762 -1.21e-4,8e-5 -2.42e-4,1.7e-4 -3.62e-4,2.5e-4 -0.792819,-0.14355 -1.506105,-0.58444 -1.97025,-1.24202 l -6.31e-4,-8.9e-4 c -0.966904,-1.37064 -0.572101,-3.31997 0.926284,-4.29781 2.28e-4,-1.5e-4 4.57e-4,-3e-4 6.85e-4,-4.5e-4 1.498199,-0.97769 3.447824,-0.55398 4.308341,0.88467 z"
           id="path1977" />
        <path
           style="opacity:1;fill:#220bd2;fill-opacity:1;stroke:none;stroke-width:0.132417px;stroke-opacity:1"
           d="m 75.217748,128.55311 c 0.279028,0.98036 0.148743,2.03938 -0.309627,2.93512 -1.36e-4,4e-5 -2.72e-4,8e-5 -4.08e-4,1.3e-4 -0.459501,0.89813 -1.21935,1.58003 -2.135316,1.91744 -1.64e-4,6e-5 -3.28e-4,1.2e-4 -4.92e-4,1.8e-4 -0.915975,0.33742 -1.941683,0.31177 -2.876786,-0.0761 -2.74e-4,-2.8e-4 -5.49e-4,-5.6e-4 -8.24e-4,-8.4e-4 -0.933044,-0.38715 -1.714961,-1.11488 -2.132366,-2.04821 l -4.47e-4,-0.001 c -0.870149,-1.9465 0.14855,-4.31467 2.352718,-5.12031 1.89e-4,-7e-5 3.77e-4,-1.4e-4 5.66e-4,-2.1e-4 2.204177,-0.80562 4.520302,0.34653 5.102982,2.39378 z"
           id="path1979" />
        <path
           style="opacity:1;fill:#3310bb;fill-opacity:1;stroke:none;stroke-width:0.160502px;stroke-opacity:1"
           d="m 90.817082,126.83784 c -0.07977,1.23144 -0.657938,2.38576 -1.51875,3.22648 -1.04e-4,-1e-5 -2.08e-4,-1e-5 -3.13e-4,-1e-5 -0.863259,0.84312 -1.960671,1.32905 -3.090242,1.37859 -1.34e-4,1e-5 -2.68e-4,1e-5 -4.01e-4,2e-5 -0.547146,0.024 -1.089002,-0.0542 -1.607749,-0.22606 -0.559488,-0.18944 -1.097985,-0.4883 -1.581197,-0.88804 -1.04e-4,1e-5 -2.07e-4,2e-5 -3.11e-4,3e-5 -0.927411,-0.7673 -1.601934,-1.86844 -1.786551,-3.08869 l -1.63e-4,-0.001 c -0.294273,-1.9462 0.76264,-3.83021 2.654774,-4.68171 0,0 0,0 0,0 0.58674,-0.25935 1.243104,-0.41619 1.937006,-0.44332 1.66e-4,-1e-5 3.32e-4,-1e-5 4.98e-4,-2e-5 3.048364,-0.11917 5.159176,2.16456 4.993399,4.72381 z"
           id="path1981" />
        <path
           style="opacity:1;fill:#4416a5;fill-opacity:1;stroke:none;stroke-width:0.188587px;stroke-opacity:1"
           d="m 106.17576,130.2762 c -0.51844,1.35722 -1.57123,2.457 -2.83852,3.1003 l -3.6e-4,0.001 c -1.27144,0.64543 -2.68405,0.80339 -3.978972,0.45119 -9.8e-5,-3e-5 -1.96e-4,-5e-5 -2.94e-4,-8e-5 -1.294618,-0.35211 -2.423071,-1.20065 -3.189938,-2.39472 -6.8e-5,-2e-5 -1.36e-4,-3e-5 -2.05e-4,-4e-5 -0.763397,-1.1888 -1.126936,-2.66698 -0.900619,-4.09902 l 1.71e-4,-10e-4 c 0.473321,-2.99352 3.644374,-5.01827 6.967317,-4.12064 8e-5,2e-5 1.6e-4,5e-5 2.4e-4,7e-5 3.44692,0.93231 5.01839,4.24297 3.94118,7.06298 z"
           id="path1983" />
        <path
           style="opacity:1;fill:#551b8e;fill-opacity:1;stroke:none;stroke-width:0.216671px;stroke-opacity:1"
           d="m 120.16336,137.50662 c -0.91015,1.40275 -2.35515,2.37865 -3.95322,2.77304 -1.60165,0.39449 -3.24968,0.18575 -4.62969,-0.56756 -1.37907,-0.75279 -2.43068,-2.01661 -2.96276,-3.56252 -0.53026,-1.54062 -0.51277,-3.28558 0.15003,-4.81525 1.38403,-3.19424 5.43289,-4.53212 8.83431,-2.68528 3.5e-4,1.9e-4 7.1e-4,3.8e-4 0.001,5.8e-4 3.40139,1.84687 4.45748,5.93298 2.56027,8.85699 z"
           id="path1985" />
        <path
           style="opacity:1;fill:#672178;fill-opacity:1;stroke:none;stroke-width:0.244756px;stroke-opacity:1"
           d="m 132.74641,147.07116 c -1.23542,1.42887 -3.00526,2.2973 -4.88169,2.46974 -1.87777,0.17333 -3.72484,-0.35853 -5.16941,-1.47468 -1.4447,-1.11626 -2.40573,-2.75261 -2.7114,-4.59732 -0.30378,-1.83795 0.0666,-3.77945 1.11207,-5.34914 2.18364,-3.27869 6.92066,-3.99364 10.33135,-1.36107 3.47912,2.68538 3.88304,7.34702 1.31908,10.31247 z"
           id="path1987" />
      </g>
      <g
         id="g2005"
         transform="rotate(95.947664,77.704663,179.42924)"
         inkscape:transform-center-x="-15.869798"
         inkscape:transform-center-y="53.118216">
        <path
           style="opacity:1;fill:#0000ff;fill-opacity:1;stroke:none;stroke-width:0.0762476px;stroke-opacity:1"
           d="m 48.047366,144.20106 c 0.38146,0.44917 0.564145,1.0362 0.513401,1.62773 9.7e-5,4e-4 1.94e-4,8e-4 2.9e-4,0.001 -0.05069,0.59182 -0.330371,1.14261 -0.778687,1.53617 -1.94e-4,1.7e-4 -3.89e-4,3.4e-4 -5.84e-4,5.2e-4 -0.448292,0.39355 -1.032024,0.59926 -1.625666,0.57318 -1.39e-4,1.3e-4 -2.77e-4,2.5e-4 -4.16e-4,3.7e-4 -0.594007,-0.027 -1.151483,-0.28424 -1.546077,-0.71966 l -7.35e-4,-8.1e-4 c -0.822327,-0.90808 -0.729283,-2.33939 0.23967,-3.19185 2.58e-4,-2.3e-4 5.16e-4,-4.6e-4 7.74e-4,-6.9e-4 0.963926,-0.84657 2.403567,-0.76163 3.19803,0.17385 z"
           id="path1991" />
        <path
           style="opacity:1;fill:#1105e8;fill-opacity:1;stroke:none;stroke-width:0.104332px;stroke-opacity:1"
           d="m 60.807018,134.92322 c 0.412718,0.69001 0.527875,1.52166 0.340391,2.30242 6.7e-5,3.9e-4 1.33e-4,7.8e-4 2e-4,0.001 -0.187717,0.78178 -0.663832,1.45897 -1.330389,1.89463 -2.11e-4,1.4e-4 -4.23e-4,2.8e-4 -6.35e-4,4.2e-4 -0.66655,0.43566 -1.480067,0.60123 -2.273634,0.45762 -1.21e-4,8e-5 -2.42e-4,1.7e-4 -3.62e-4,2.5e-4 -0.792819,-0.14355 -1.506105,-0.58444 -1.97025,-1.24202 l -6.31e-4,-8.9e-4 c -0.966904,-1.37064 -0.572101,-3.31997 0.926284,-4.29781 2.28e-4,-1.5e-4 4.57e-4,-3e-4 6.85e-4,-4.5e-4 1.498199,-0.97769 3.447824,-0.55398 4.308341,0.88467 z"
           id="path1993" />
        <path
           style="opacity:1;fill:#220bd2;fill-opacity:1;stroke:none;stroke-width:0.132417px;stroke-opacity:1"
           d="m 75.217748,128.55311 c 0.279028,0.98036 0.148743,2.03938 -0.309627,2.93512 -1.36e-4,4e-5 -2.72e-4,8e-5 -4.08e-4,1.3e-4 -0.459501,0.89813 -1.21935,1.58003 -2.135316,1.91744 -1.64e-4,6e-5 -3.28e-4,1.2e-4 -4.92e-4,1.8e-4 -0.915975,0.33742 -1.941683,0.31177 -2.876786,-0.0761 -2.74e-4,-2.8e-4 -5.49e-4,-5.6e-4 -8.24e-4,-8.4e-4 -0.933044,-0.38715 -1.714961,-1.11488 -2.132366,-2.04821 l -4.47e-4,-0.001 c -0.870149,-1.9465 0.14855,-4.31467 2.352718,-5.12031 1.89e-4,-7e-5 3.77e-4,-1.4e-4 5.66e-4,-2.1e-4 2.204177,-0.80562 4.520302,0.34653 5.102982,2.39378 z"
           id="path1995" />
        <path
           style="opacity:1;fill:#3310bb;fill-opacity:1;stroke:none;stroke-width:0.160502px;stroke-opacity:1"
           d="m 90.817082,126.83784 c -0.07977,1.23144 -0.657938,2.38576 -1.51875,3.22648 -1.04e-4,-1e-5 -2.08e-4,-1e-5 -3.13e-4,-1e-5 -0.863259,0.84312 -1.960671,1.32905 -3.090242,1.37859 -1.34e-4,1e-5 -2.68e-4,1e-5 -4.01e-4,2e-5 -0.547146,0.024 -1.089002,-0.0542 -1.607749,-0.22606 -0.559488,-0.18944 -1.097985,-0.4883 -1.581197,-0.88804 -1.04e-4,1e-5 -2.07e-4,2e-5 -3.11e-4,3e-5 -0.927411,-0.7673 -1.601934,-1.86844 -1.786551,-3.08869 l -1.63e-4,-0.001 c -0.294273,-1.9462 0.76264,-3.83021 2.654774,-4.68171 0,0 0,0 0,0 0.58674,-0.25935 1.243104,-0.41619 1.937006,-0.44332 1.66e-4,-1e-5 3.32e-4,-1e-5 4.98e-4,-2e-5 3.048364,-0.11917 5.159176,2.16456 4.993399,4.72381 z"
           id="path1997" />
        <path
           style="opacity:1;fill:#4416a5;fill-opacity:1;stroke:none;stroke-width:0.188587px;stroke-opacity:1"
           d="m 106.17576,130.2762 c -0.51844,1.35722 -1.57123,2.457 -2.83852,3.1003 l -3.6e-4,0.001 c -1.27144,0.64543 -2.68405,0.80339 -3.978972,0.45119 -9.8e-5,-3e-5 -1.96e-4,-5e-5 -2.94e-4,-8e-5 -1.294618,-0.35211 -2.423071,-1.20065 -3.189938,-2.39472 -6.8e-5,-2e-5 -1.36e-4,-3e-5 -2.05e-4,-4e-5 -0.763397,-1.1888 -1.126936,-2.66698 -0.900619,-4.09902 l 1.71e-4,-10e-4 c 0.473321,-2.99352 3.644374,-5.01827 6.967317,-4.12064 8e-5,2e-5 1.6e-4,5e-5 2.4e-4,7e-5 3.44692,0.93231 5.01839,4.24297 3.94118,7.06298 z"
           id="path1999" />
        <path
           style="opacity:1;fill:#551b8e;fill-opacity:1;stroke:none;stroke-width:0.216671px;stroke-opacity:1"
           d="m 120.16336,137.50662 c -0.91015,1.40275 -2.35515,2.37865 -3.95322,2.77304 -1.60165,0.39449 -3.24968,0.18575 -4.62969,-0.56756 -1.37907,-0.75279 -2.43068,-2.01661 -2.96276,-3.56252 -0.53026,-1.54062 -0.51277,-3.28558 0.15003,-4.81525 1.38403,-3.19424 5.43289,-4.53212 8.83431,-2.68528 3.5e-4,1.9e-4 7.1e-4,3.8e-4 0.001,5.8e-4 3.40139,1.84687 4.45748,5.93298 2.56027,8.85699 z"
           id="path2001" />
        <path
           style="opacity:1;fill:#672178;fill-opacity:1;stroke:none;stroke-width:0.244756px;stroke-opacity:1"
           d="m 132.74641,147.07116 c -1.23542,1.42887 -3.00526,2.2973 -4.88169,2.46974 -1.87777,0.17333 -3.72484,-0.35853 -5.16941,-1.47468 -1.4447,-1.11626 -2.40573,-2.75261 -2.7114,-4.59732 -0.30378,-1.83795 0.0666,-3.77945 1.11207,-5.34914 2.18364,-3.27869 6.92066,-3.99364 10.33135,-1.36107 3.47912,2.68538 3.88304,7.34702 1.31908,10.31247 z"
           id="path2003" />
      </g>
      <g
         id="g2021"
         transform="rotate(125.94766,74.266479,166.75448)"
         inkscape:transform-center-x="18.751891"
         inkscape:transform-center-y="51.149105">
        <path
           style="opacity:1;fill:#0000ff;fill-opacity:1;stroke:none;stroke-width:0.0762476px;stroke-opacity:1"
           d="m 48.047366,144.20106 c 0.38146,0.44917 0.564145,1.0362 0.513401,1.62773 9.7e-5,4e-4 1.94e-4,8e-4 2.9e-4,0.001 -0.05069,0.59182 -0.330371,1.14261 -0.778687,1.53617 -1.94e-4,1.7e-4 -3.89e-4,3.4e-4 -5.84e-4,5.2e-4 -0.448292,0.39355 -1.032024,0.59926 -1.625666,0.57318 -1.39e-4,1.3e-4 -2.77e-4,2.5e-4 -4.16e-4,3.7e-4 -0.594007,-0.027 -1.151483,-0.28424 -1.546077,-0.71966 l -7.35e-4,-8.1e-4 c -0.822327,-0.90808 -0.729283,-2.33939 0.23967,-3.19185 2.58e-4,-2.3e-4 5.16e-4,-4.6e-4 7.74e-4,-6.9e-4 0.963926,-0.84657 2.403567,-0.76163 3.19803,0.17385 z"
           id="path2007" />
        <path
           style="opacity:1;fill:#1105e8;fill-opacity:1;stroke:none;stroke-width:0.104332px;stroke-opacity:1"
           d="m 60.807018,134.92322 c 0.412718,0.69001 0.527875,1.52166 0.340391,2.30242 6.7e-5,3.9e-4 1.33e-4,7.8e-4 2e-4,0.001 -0.187717,0.78178 -0.663832,1.45897 -1.330389,1.89463 -2.11e-4,1.4e-4 -4.23e-4,2.8e-4 -6.35e-4,4.2e-4 -0.66655,0.43566 -1.480067,0.60123 -2.273634,0.45762 -1.21e-4,8e-5 -2.42e-4,1.7e-4 -3.62e-4,2.5e-4 -0.792819,-0.14355 -1.506105,-0.58444 -1.97025,-1.24202 l -6.31e-4,-8.9e-4 c -0.966904,-1.37064 -0.572101,-3.31997 0.926284,-4.29781 2.28e-4,-1.5e-4 4.57e-4,-3e-4 6.85e-4,-4.5e-4 1.498199,-0.97769 3.447824,-0.55398 4.308341,0.88467 z"
           id="path2009" />
        <path
           style="opacity:1;fill:#220bd2;fill-opacity:1;stroke:none;stroke-width:0.132417px;stroke-opacity:1"
           d="m 75.217748,128.55311 c 0.279028,0.98036 0.148743,2.03938 -0.309627,2.93512 -1.36e-4,4e-5 -2.72e-4,8e-5 -4.08e-4,1.3e-4 -0.459501,0.89813 -1.21935,1.58003 -2.135316,1.91744 -1.64e-4,6e-5 -3.28e-4,1.2e-4 -4.92e-4,1.8e-4 -0.915975,0.33742 -1.941683,0.31177 -2.876786,-0.0761 -2.74e-4,-2.8e-4 -5.49e-4,-5.6e-4 -8.24e-4,-8.4e-4 -0.933044,-0.38715 -1.714961,-1.11488 -2.132366,-2.04821 l -4.47e-4,-0.001 c -0.870149,-1.9465 0.14855,-4.31467 2.352718,-5.12031 1.89e-4,-7e-5 3.77e-4,-1.4e-4 5.66e-4,-2.1e-4 2.204177,-0.80562 4.520302,0.34653 5.102982,2.39378 z"
           id="path2011" />
        <path
           style="opacity:1;fill:#3310bb;fill-opacity:1;stroke:none;stroke-width:0.160502px;stroke-opacity:1"
           d="m 90.817082,126.83784 c -0.07977,1.23144 -0.657938,2.38576 -1.51875,3.22648 -1.04e-4,-1e-5 -2.08e-4,-1e-5 -3.13e-4,-1e-5 -0.863259,0.84312 -1.960671,1.32905 -3.090242,1.37859 -1.34e-4,1e-5 -2.68e-4,1e-5 -4.01e-4,2e-5 -0.547146,0.024 -1.089002,-0.0542 -1.607749,-0.22606 -0.559488,-0.18944 -1.097985,-0.4883 -1.581197,-0.88804 -1.04e-4,1e-5 -2.07e-4,2e-5 -3.11e-4,3e-5 -0.927411,-0.7673 -1.601934,-1.86844 -1.786551,-3.08869 l -1.63e-4,-0.001 c -0.294273,-1.9462 0.76264,-3.83021 2.654774,-4.68171 0,0 0,0 0,0 0.58674,-0.25935 1.243104,-0.41619 1.937006,-0.44332 1.66e-4,-1e-5 3.32e-4,-1e-5 4.98e-4,-2e-5 3.048364,-0.11917 5.159176,2.16456 4.993399,4.72381 z"
           id="path2013" />
        <path
           style="opacity:1;fill:#4416a5;fill-opacity:1;stroke:none;stroke-width:0.188587px;stroke-opacity:1"
           d="m 106.17576,130.2762 c -0.51844,1.35722 -1.57123,2.457 -2.83852,3.1003 l -3.6e-4,0.001 c -1.27144,0.64543 -2.68405,0.80339 -3.978972,0.45119 -9.8e-5,-3e-5 -1.96e-4,-5e-5 -2.94e-4,-8e-5 -1.294618,-0.35211 -2.423071,-1.20065 -3.189938,-2.39472 -6.8e-5,-2e-5 -1.36e-4,-3e-5 -2.05e-4,-4e-5 -0.763397,-1.1888 -1.126936,-2.66698 -0.900619,-4.09902 l 1.71e-4,-10e-4 c 0.473321,-2.99352 3.644374,-5.01827 6.967317,-4.12064 8e-5,2e-5 1.6e-4,5e-5 2.4e-4,7e-5 3.44692,0.93231 5.01839,4.24297 3.94118,7.06298 z"
           id="path2015" />
        <path
           style="opacity:1;fill:#551b8e;fill-opacity:1;stroke:none;stroke-width:0.216671px;stroke-opacity:1"
           d="m 120.16336,137.50662 c -0.91015,1.40275 -2.35515,2.37865 -3.95322,2.77304 -1.60165,0.39449 -3.24968,0.18575 -4.62969,-0.56756 -1.37907,-0.75279 -2.43068,-2.01661 -2.96276,-3.56252 -0.53026,-1.54062 -0.51277,-3.28558 0.15003,-4.81525 1.38403,-3.19424 5.43289,-4.53212 8.83431,-2.68528 3.5e-4,1.9e-4 7.1e-4,3.8e-4 0.001,5.8e-4 3.40139,1.84687 4.45748,5.93298 2.56027,8.85699 z"
           id="path2017" />
        <path
           style="opacity:1;fill:#672178;fill-opacity:1;stroke:none;stroke-width:0.244756px;stroke-opacity:1"
           d="m 132.74641,147.07116 c -1.23542,1.42887 -3.00526,2.2973 -4.88169,2.46974 -1.87777,0.17333 -3.72484,-0.35853 -5.16941,-1.47468 -1.4447,-1.11626 -2.40573,-2.75261 -2.7114,-4.59732 -0.30378,-1.83795 0.0666,-3.77945 1.11207,-5.34914 2.18364,-3.27869 6.92066,-3.99364 10.33135,-1.36107 3.47912,2.68538 3.88304,7.34702 1.31908,10.31247 z"
           id="path2019" />
      </g>
      <g
         id="g2037"
         transform="rotate(155.94766,71.65515,157.12789)"
         inkscape:transform-center-x="41.50405"
         inkscape:transform-center-y="36.991094">
        <path
           style="opacity:1;fill:#0000ff;fill-opacity:1;stroke:none;stroke-width:0.0762476px;stroke-opacity:1"
           d="m 48.047366,144.20106 c 0.38146,0.44917 0.564145,1.0362 0.513401,1.62773 9.7e-5,4e-4 1.94e-4,8e-4 2.9e-4,0.001 -0.05069,0.59182 -0.330371,1.14261 -0.778687,1.53617 -1.94e-4,1.7e-4 -3.89e-4,3.4e-4 -5.84e-4,5.2e-4 -0.448292,0.39355 -1.032024,0.59926 -1.625666,0.57318 -1.39e-4,1.3e-4 -2.77e-4,2.5e-4 -4.16e-4,3.7e-4 -0.594007,-0.027 -1.151483,-0.28424 -1.546077,-0.71966 l -7.35e-4,-8.1e-4 c -0.822327,-0.90808 -0.729283,-2.33939 0.23967,-3.19185 2.58e-4,-2.3e-4 5.16e-4,-4.6e-4 7.74e-4,-6.9e-4 0.963926,-0.84657 2.403567,-0.76163 3.19803,0.17385 z"
           id="path2023" />
        <path
           style="opacity:1;fill:#1105e8;fill-opacity:1;stroke:none;stroke-width:0.104332px;stroke-opacity:1"
           d="m 60.807018,134.92322 c 0.412718,0.69001 0.527875,1.52166 0.340391,2.30242 6.7e-5,3.9e-4 1.33e-4,7.8e-4 2e-4,0.001 -0.187717,0.78178 -0.663832,1.45897 -1.330389,1.89463 -2.11e-4,1.4e-4 -4.23e-4,2.8e-4 -6.35e-4,4.2e-4 -0.66655,0.43566 -1.480067,0.60123 -2.273634,0.45762 -1.21e-4,8e-5 -2.42e-4,1.7e-4 -3.62e-4,2.5e-4 -0.792819,-0.14355 -1.506105,-0.58444 -1.97025,-1.24202 l -6.31e-4,-8.9e-4 c -0.966904,-1.37064 -0.572101,-3.31997 0.926284,-4.29781 2.28e-4,-1.5e-4 4.57e-4,-3e-4 6.85e-4,-4.5e-4 1.498199,-0.97769 3.447824,-0.55398 4.308341,0.88467 z"
           id="path2025" />
        <path
           style="opacity:1;fill:#220bd2;fill-opacity:1;stroke:none;stroke-width:0.132417px;stroke-opacity:1"
           d="m 75.217748,128.55311 c 0.279028,0.98036 0.148743,2.03938 -0.309627,2.93512 -1.36e-4,4e-5 -2.72e-4,8e-5 -4.08e-4,1.3e-4 -0.459501,0.89813 -1.21935,1.58003 -2.135316,1.91744 -1.64e-4,6e-5 -3.28e-4,1.2e-4 -4.92e-4,1.8e-4 -0.915975,0.33742 -1.941683,0.31177 -2.876786,-0.0761 -2.74e-4,-2.8e-4 -5.49e-4,-5.6e-4 -8.24e-4,-8.4e-4 -0.933044,-0.38715 -1.714961,-1.11488 -2.132366,-2.04821 l -4.47e-4,-0.001 c -0.870149,-1.9465 0.14855,-4.31467 2.352718,-5.12031 1.89e-4,-7e-5 3.77e-4,-1.4e-4 5.66e-4,-2.1e-4 2.204177,-0.80562 4.520302,0.34653 5.102982,2.39378 z"
           id="path2027" />
        <path
           style="opacity:1;fill:#3310bb;fill-opacity:1;stroke:none;stroke-width:0.160502px;stroke-opacity:1"
           d="m 90.817082,126.83784 c -0.07977,1.23144 -0.657938,2.38576 -1.51875,3.22648 -1.04e-4,-1e-5 -2.08e-4,-1e-5 -3.13e-4,-1e-5 -0.863259,0.84312 -1.960671,1.32905 -3.090242,1.37859 -1.34e-4,1e-5 -2.68e-4,1e-5 -4.01e-4,2e-5 -0.547146,0.024 -1.089002,-0.0542 -1.607749,-0.22606 -0.559488,-0.18944 -1.097985,-0.4883 -1.581197,-0.88804 -1.04e-4,1e-5 -2.07e-4,2e-5 -3.11e-4,3e-5 -0.927411,-0.7673 -1.601934,-1.86844 -1.786551,-3.08869 l -1.63e-4,-0.001 c -0.294273,-1.9462 0.76264,-3.83021 2.654774,-4.68171 0,0 0,0 0,0 0.58674,-0.25935 1.243104,-0.41619 1.937006,-0.44332 1.66e-4,-1e-5 3.32e-4,-1e-5 4.98e-4,-2e-5 3.048364,-0.11917 5.159176,2.16456 4.993399,4.72381 z"
           id="path2029" />
        <path
           style="opacity:1;fill:#4416a5;fill-opacity:1;stroke:none;stroke-width:0.188587px;stroke-opacity:1"
           d="m 106.17576,130.2762 c -0.51844,1.35722 -1.57123,2.457 -2.83852,3.1003 l -3.6e-4,0.001 c -1.27144,0.64543 -2.68405,0.80339 -3.978972,0.45119 -9.8e-5,-3e-5 -1.96e-4,-5e-5 -2.94e-4,-8e-5 -1.294618,-0.35211 -2.423071,-1.20065 -3.189938,-2.39472 -6.8e-5,-2e-5 -1.36e-4,-3e-5 -2.05e-4,-4e-5 -0.763397,-1.1888 -1.126936,-2.66698 -0.900619,-4.09902 l 1.71e-4,-10e-4 c 0.473321,-2.99352 3.644374,-5.01827 6.967317,-4.12064 8e-5,2e-5 1.6e-4,5e-5 2.4e-4,7e-5 3.44692,0.93231 5.01839,4.24297 3.94118,7.06298 z"
           id="path2031" />
        <path
           style="opacity:1;fill:#551b8e;fill-opacity:1;stroke:none;stroke-width:0.216671px;stroke-opacity:1"
           d="m 120.16336,137.50662 c -0.91015,1.40275 -2.35515,2.37865 -3.95322,2.77304 -1.60165,0.39449 -3.24968,0.18575 -4.62969,-0.56756 -1.37907,-0.75279 -2.43068,-2.01661 -2.96276,-3.56252 -0.53026,-1.54062 -0.51277,-3.28558 0.15003,-4.81525 1.38403,-3.19424 5.43289,-4.53212 8.83431,-2.68528 3.5e-4,1.9e-4 7.1e-4,3.8e-4 0.001,5.8e-4 3.40139,1.84687 4.45748,5.93298 2.56027,8.85699 z"
           id="path2033" />
        <path
           style="opacity:1;fill:#672178;fill-opacity:1;stroke:none;stroke-width:0.244756px;stroke-opacity:1"
           d="m 132.74641,147.07116 c -1.23542,1.42887 -3.00526,2.2973 -4.88169,2.46974 -1.87777,0.17333 -3.72484,-0.35853 -5.16941,-1.47468 -1.4447,-1.11626 -2.40573,-2.75261 -2.7114,-4.59732 -0.30378,-1.83795 0.0666,-3.77945 1.11207,-5.34914 2.18364,-3.27869 6.92066,-3.99364 10.33135,-1.36107 3.47912,2.68538 3.88304,7.34702 1.31908,10.31247 z"
           id="path2035" />
      </g>
      <g
         id="g2053"
         transform="rotate(-174.05234,69.325846,148.54099)"
         inkscape:transform-center-x="53.118207"
         inkscape:transform-center-y="15.869801">
        <path
           style="opacity:1;fill:#0000ff;fill-opacity:1;stroke:none;stroke-width:0.0762476px;stroke-opacity:1"
           d="m 48.047366,144.20106 c 0.38146,0.44917 0.564145,1.0362 0.513401,1.62773 9.7e-5,4e-4 1.94e-4,8e-4 2.9e-4,0.001 -0.05069,0.59182 -0.330371,1.14261 -0.778687,1.53617 -1.94e-4,1.7e-4 -3.89e-4,3.4e-4 -5.84e-4,5.2e-4 -0.448292,0.39355 -1.032024,0.59926 -1.625666,0.57318 -1.39e-4,1.3e-4 -2.77e-4,2.5e-4 -4.16e-4,3.7e-4 -0.594007,-0.027 -1.151483,-0.28424 -1.546077,-0.71966 l -7.35e-4,-8.1e-4 c -0.822327,-0.90808 -0.729283,-2.33939 0.23967,-3.19185 2.58e-4,-2.3e-4 5.16e-4,-4.6e-4 7.74e-4,-6.9e-4 0.963926,-0.84657 2.403567,-0.76163 3.19803,0.17385 z"
           id="path2039" />
        <path
           style="opacity:1;fill:#1105e8;fill-opacity:1;stroke:none;stroke-width:0.104332px;stroke-opacity:1"
           d="m 60.807018,134.92322 c 0.412718,0.69001 0.527875,1.52166 0.340391,2.30242 6.7e-5,3.9e-4 1.33e-4,7.8e-4 2e-4,0.001 -0.187717,0.78178 -0.663832,1.45897 -1.330389,1.89463 -2.11e-4,1.4e-4 -4.23e-4,2.8e-4 -6.35e-4,4.2e-4 -0.66655,0.43566 -1.480067,0.60123 -2.273634,0.45762 -1.21e-4,8e-5 -2.42e-4,1.7e-4 -3.62e-4,2.5e-4 -0.792819,-0.14355 -1.506105,-0.58444 -1.97025,-1.24202 l -6.31e-4,-8.9e-4 c -0.966904,-1.37064 -0.572101,-3.31997 0.926284,-4.29781 2.28e-4,-1.5e-4 4.57e-4,-3e-4 6.85e-4,-4.5e-4 1.498199,-0.97769 3.447824,-0.55398 4.308341,0.88467 z"
           id="path2041" />
        <path
           style="opacity:1;fill:#220bd2;fill-opacity:1;stroke:none;stroke-width:0.132417px;stroke-opacity:1"
           d="m 75.217748,128.55311 c 0.279028,0.98036 0.148743,2.03938 -0.309627,2.93512 -1.36e-4,4e-5 -2.72e-4,8e-5 -4.08e-4,1.3e-4 -0.459501,0.89813 -1.21935,1.58003 -2.135316,1.91744 -1.64e-4,6e-5 -3.28e-4,1.2e-4 -4.92e-4,1.8e-4 -0.915975,0.33742 -1.941683,0.31177 -2.876786,-0.0761 -2.74e-4,-2.8e-4 -5.49e-4,-5.6e-4 -8.24e-4,-8.4e-4 -0.933044,-0.38715 -1.714961,-1.11488 -2.132366,-2.04821 l -4.47e-4,-0.001 c -0.870149,-1.9465 0.14855,-4.31467 2.352718,-5.12031 1.89e-4,-7e-5 3.77e-4,-1.4e-4 5.66e-4,-2.1e-4 2.204177,-0.80562 4.520302,0.34653 5.102982,2.39378 z"
           id="path2043" />
        <path
           style="opacity:1;fill:#3310bb;fill-opacity:1;stroke:none;stroke-width:0.160502px;stroke-opacity:1"
           d="m 90.817082,126.83784 c -0.07977,1.23144 -0.657938,2.38576 -1.51875,3.22648 -1.04e-4,-1e-5 -2.08e-4,-1e-5 -3.13e-4,-1e-5 -0.863259,0.84312 -1.960671,1.32905 -3.090242,1.37859 -1.34e-4,1e-5 -2.68e-4,1e-5 -4.01e-4,2e-5 -0.547146,0.024 -1.089002,-0.0542 -1.607749,-0.22606 -0.559488,-0.18944 -1.097985,-0.4883 -1.581197,-0.88804 -1.04e-4,1e-5 -2.07e-4,2e-5 -3.11e-4,3e-5 -0.927411,-0.7673 -1.601934,-1.86844 -1.786551,-3.08869 l -1.63e-4,-0.001 c -0.294273,-1.9462 0.76264,-3.83021 2.654774,-4.68171 0,0 0,0 0,0 0.58674,-0.25935 1.243104,-0.41619 1.937006,-0.44332 1.66e-4,-1e-5 3.32e-4,-1e-5 4.98e-4,-2e-5 3.048364,-0.11917 5.159176,2.16456 4.993399,4.72381 z"
           id="path2045" />
        <path
           style="opacity:1;fill:#4416a5;fill-opacity:1;stroke:none;stroke-width:0.188587px;stroke-opacity:1"
           d="m 106.17576,130.2762 c -0.51844,1.35722 -1.57123,2.457 -2.83852,3.1003 l -3.6e-4,0.001 c -1.27144,0.64543 -2.68405,0.80339 -3.978972,0.45119 -9.8e-5,-3e-5 -1.96e-4,-5e-5 -2.94e-4,-8e-5 -1.294618,-0.35211 -2.423071,-1.20065 -3.189938,-2.39472 -6.8e-5,-2e-5 -1.36e-4,-3e-5 -2.05e-4,-4e-5 -0.763397,-1.1888 -1.126936,-2.66698 -0.900619,-4.09902 l 1.71e-4,-10e-4 c 0.473321,-2.99352 3.644374,-5.01827 6.967317,-4.12064 8e-5,2e-5 1.6e-4,5e-5 2.4e-4,7e-5 3.44692,0.93231 5.01839,4.24297 3.94118,7.06298 z"
           id="path2047" />
        <path
           style="opacity:1;fill:#551b8e;fill-opacity:1;stroke:none;stroke-width:0.216671px;stroke-opacity:1"
           d="m 120.16336,137.50662 c -0.91015,1.40275 -2.35515,2.37865 -3.95322,2.77304 -1.60165,0.39449 -3.24968,0.18575 -4.62969,-0.56756 -1.37907,-0.75279 -2.43068,-2.01661 -2.96276,-3.56252 -0.53026,-1.54062 -0.51277,-3.28558 0.15003,-4.81525 1.38403,-3.19424 5.43289,-4.53212 8.83431,-2.68528 3.5e-4,1.9e-4 7.1e-4,3.8e-4 0.001,5.8e-4 3.40139,1.84687 4.45748,5.93298 2.56027,8.85699 z"
           id="path2049" />
        <path
           style="opacity:1;fill:#672178;fill-opacity:1;stroke:none;stroke-width:0.244756px;stroke-opacity:1"
           d="m 132.74641,147.07116 c -1.23542,1.42887 -3.00526,2.2973 -4.88169,2.46974 -1.87777,0.17333 -3.72484,-0.35853 -5.16941,-1.47468 -1.4447,-1.11626 -2.40573,-2.75261 -2.7114,-4.59732 -0.30378,-1.83795 0.0666,-3.77945 1.11207,-5.34914 2.18364,-3.27869 6.92066,-3.99364 10.33135,-1.36107 3.47912,2.68538 3.88304,7.34702 1.31908,10.31247 z"
           id="path2051" />
      </g>
      <g
         id="g2069"
         transform="rotate(-144.05234,66.930776,139.71164)"
         inkscape:transform-center-x="51.149106"
         inkscape:transform-center-y="-18.751881">
        <path
           style="opacity:1;fill:#0000ff;fill-opacity:1;stroke:none;stroke-width:0.0762476px;stroke-opacity:1"
           d="m 48.047366,144.20106 c 0.38146,0.44917 0.564145,1.0362 0.513401,1.62773 9.7e-5,4e-4 1.94e-4,8e-4 2.9e-4,0.001 -0.05069,0.59182 -0.330371,1.14261 -0.778687,1.53617 -1.94e-4,1.7e-4 -3.89e-4,3.4e-4 -5.84e-4,5.2e-4 -0.448292,0.39355 -1.032024,0.59926 -1.625666,0.57318 -1.39e-4,1.3e-4 -2.77e-4,2.5e-4 -4.16e-4,3.7e-4 -0.594007,-0.027 -1.151483,-0.28424 -1.546077,-0.71966 l -7.35e-4,-8.1e-4 c -0.822327,-0.90808 -0.729283,-2.33939 0.23967,-3.19185 2.58e-4,-2.3e-4 5.16e-4,-4.6e-4 7.74e-4,-6.9e-4 0.963926,-0.84657 2.403567,-0.76163 3.19803,0.17385 z"
           id="path2055" />
        <path
           style="opacity:1;fill:#1105e8;fill-opacity:1;stroke:none;stroke-width:0.104332px;stroke-opacity:1"
           d="m 60.807018,134.92322 c 0.412718,0.69001 0.527875,1.52166 0.340391,2.30242 6.7e-5,3.9e-4 1.33e-4,7.8e-4 2e-4,0.001 -0.187717,0.78178 -0.663832,1.45897 -1.330389,1.89463 -2.11e-4,1.4e-4 -4.23e-4,2.8e-4 -6.35e-4,4.2e-4 -0.66655,0.43566 -1.480067,0.60123 -2.273634,0.45762 -1.21e-4,8e-5 -2.42e-4,1.7e-4 -3.62e-4,2.5e-4 -0.792819,-0.14355 -1.506105,-0.58444 -1.97025,-1.24202 l -6.31e-4,-8.9e-4 c -0.966904,-1.37064 -0.572101,-3.31997 0.926284,-4.29781 2.28e-4,-1.5e-4 4.57e-4,-3e-4 6.85e-4,-4.5e-4 1.498199,-0.97769 3.447824,-0.55398 4.308341,0.88467 z"
           id="path2057" />
        <path
           style="opacity:1;fill:#220bd2;fill-opacity:1;stroke:none;stroke-width:0.132417px;stroke-opacity:1"
           d="m 75.217748,128.55311 c 0.279028,0.98036 0.148743,2.03938 -0.309627,2.93512 -1.36e-4,4e-5 -2.72e-4,8e-5 -4.08e-4,1.3e-4 -0.459501,0.89813 -1.21935,1.58003 -2.135316,1.91744 -1.64e-4,6e-5 -3.28e-4,1.2e-4 -4.92e-4,1.8e-4 -0.915975,0.33742 -1.941683,0.31177 -2.876786,-0.0761 -2.74e-4,-2.8e-4 -5.49e-4,-5.6e-4 -8.24e-4,-8.4e-4 -0.933044,-0.38715 -1.714961,-1.11488 -2.132366,-2.04821 l -4.47e-4,-0.001 c -0.870149,-1.9465 0.14855,-4.31467 2.352718,-5.12031 1.89e-4,-7e-5 3.77e-4,-1.4e-4 5.66e-4,-2.1e-4 2.204177,-0.80562 4.520302,0.34653 5.102982,2.39378 z"
           id="path2059" />
        <path
           style="opacity:1;fill:#3310bb;fill-opacity:1;stroke:none;stroke-width:0.160502px;stroke-opacity:1"
           d="m 90.817082,126.83784 c -0.07977,1.23144 -0.657938,2.38576 -1.51875,3.22648 -1.04e-4,-1e-5 -2.08e-4,-1e-5 -3.13e-4,-1e-5 -0.863259,0.84312 -1.960671,1.32905 -3.090242,1.37859 -1.34e-4,1e-5 -2.68e-4,1e-5 -4.01e-4,2e-5 -0.547146,0.024 -1.089002,-0.0542 -1.607749,-0.22606 -0.559488,-0.18944 -1.097985,-0.4883 -1.581197,-0.88804 -1.04e-4,1e-5 -2.07e-4,2e-5 -3.11e-4,3e-5 -0.927411,-0.7673 -1.601934,-1.86844 -1.786551,-3.08869 l -1.63e-4,-0.001 c -0.294273,-1.9462 0.76264,-3.83021 2.654774,-4.68171 0,0 0,0 0,0 0.58674,-0.25935 1.243104,-0.41619 1.937006,-0.44332 1.66e-4,-1e-5 3.32e-4,-1e-5 4.98e-4,-2e-5 3.048364,-0.11917 5.159176,2.16456 4.993399,4.72381 z"
           id="path2061" />
        <path
           style="opacity:1;fill:#4416a5;fill-opacity:1;stroke:none;stroke-width:0.188587px;stroke-opacity:1"
           d="m 106.17576,130.2762 c -0.51844,1.35722 -1.57123,2.457 -2.83852,3.1003 l -3.6e-4,0.001 c -1.27144,0.64543 -2.68405,0.80339 -3.978972,0.45119 -9.8e-5,-3e-5 -1.96e-4,-5e-5 -2.94e-4,-8e-5 -1.294618,-0.35211 -2.423071,-1.20065 -3.189938,-2.39472 -6.8e-5,-2e-5 -1.36e-4,-3e-5 -2.05e-4,-4e-5 -0.763397,-1.1888 -1.126936,-2.66698 -0.900619,-4.09902 l 1.71e-4,-10e-4 c 0.473321,-2.99352 3.644374,-5.01827 6.967317,-4.12064 8e-5,2e-5 1.6e-4,5e-5 2.4e-4,7e-5 3.44692,0.93231 5.01839,4.24297 3.94118,7.06298 z"
           id="path2063" />
        <path
           style="opacity:1;fill:#551b8e;fill-opacity:1;stroke:none;stroke-width:0.216671px;stroke-opacity:1"
           d="m 120.16336,137.50662 c -0.91015,1.40275 -2.35515,2.37865 -3.95322,2.77304 -1.60165,0.39449 -3.24968,0.18575 -4.62969,-0.56756 -1.37907,-0.75279 -2.43068,-2.01661 -2.96276,-3.56252 -0.53026,-1.54062 -0.51277,-3.28558 0.15003,-4.81525 1.38403,-3.19424 5.43289,-4.53212 8.83431,-2.68528 3.5e-4,1.9e-4 7.1e-4,3.8e-4 0.001,5.8e-4 3.40139,1.84687 4.45748,5.93298 2.56027,8.85699 z"
           id="path2065" />
        <path
           style="opacity:1;fill:#672178;fill-opacity:1;stroke:none;stroke-width:0.244756px;stroke-opacity:1"
           d="m 132.74641,147.07116 c -1.23542,1.42887 -3.00526,2.2973 -4.88169,2.46974 -1.87777,0.17333 -3.72484,-0.35853 -5.16941,-1.47468 -1.4447,-1.11626 -2.40573,-2.75261 -2.7114,-4.59732 -0.30378,-1.83795 0.0666,-3.77945 1.11207,-5.34914 2.18364,-3.27869 6.92066,-3.99364 10.33135,-1.36107 3.47912,2.68538 3.88304,7.34702 1.31908,10.31247 z"
           id="path2067" />
      </g>
      <g
         id="g2085"
         transform="rotate(-114.05234,64.079673,129.20115)"
         inkscape:transform-center-x="36.991106"
         inkscape:transform-center-y="-41.504044">
        <path
           style="opacity:1;fill:#0000ff;fill-opacity:1;stroke:none;stroke-width:0.0762476px;stroke-opacity:1"
           d="m 48.047366,144.20106 c 0.38146,0.44917 0.564145,1.0362 0.513401,1.62773 9.7e-5,4e-4 1.94e-4,8e-4 2.9e-4,0.001 -0.05069,0.59182 -0.330371,1.14261 -0.778687,1.53617 -1.94e-4,1.7e-4 -3.89e-4,3.4e-4 -5.84e-4,5.2e-4 -0.448292,0.39355 -1.032024,0.59926 -1.625666,0.57318 -1.39e-4,1.3e-4 -2.77e-4,2.5e-4 -4.16e-4,3.7e-4 -0.594007,-0.027 -1.151483,-0.28424 -1.546077,-0.71966 l -7.35e-4,-8.1e-4 c -0.822327,-0.90808 -0.729283,-2.33939 0.23967,-3.19185 2.58e-4,-2.3e-4 5.16e-4,-4.6e-4 7.74e-4,-6.9e-4 0.963926,-0.84657 2.403567,-0.76163 3.19803,0.17385 z"
           id="path2071" />
        <path
           style="opacity:1;fill:#1105e8;fill-opacity:1;stroke:none;stroke-width:0.104332px;stroke-opacity:1"
           d="m 60.807018,134.92322 c 0.412718,0.69001 0.527875,1.52166 0.340391,2.30242 6.7e-5,3.9e-4 1.33e-4,7.8e-4 2e-4,0.001 -0.187717,0.78178 -0.663832,1.45897 -1.330389,1.89463 -2.11e-4,1.4e-4 -4.23e-4,2.8e-4 -6.35e-4,4.2e-4 -0.66655,0.43566 -1.480067,0.60123 -2.273634,0.45762 -1.21e-4,8e-5 -2.42e-4,1.7e-4 -3.62e-4,2.5e-4 -0.792819,-0.14355 -1.506105,-0.58444 -1.97025,-1.24202 l -6.31e-4,-8.9e-4 c -0.966904,-1.37064 -0.572101,-3.31997 0.926284,-4.29781 2.28e-4,-1.5e-4 4.57e-4,-3e-4 6.85e-4,-4.5e-4 1.498199,-0.97769 3.447824,-0.55398 4.308341,0.88467 z"
           id="path2073" />
        <path
           style="opacity:1;fill:#220bd2;fill-opacity:1;stroke:none;stroke-width:0.132417px;stroke-opacity:1"
           d="m 75.217748,128.55311 c 0.279028,0.98036 0.148743,2.03938 -0.309627,2.93512 -1.36e-4,4e-5 -2.72e-4,8e-5 -4.08e-4,1.3e-4 -0.459501,0.89813 -1.21935,1.58003 -2.135316,1.91744 -1.64e-4,6e-5 -3.28e-4,1.2e-4 -4.92e-4,1.8e-4 -0.915975,0.33742 -1.941683,0.31177 -2.876786,-0.0761 -2.74e-4,-2.8e-4 -5.49e-4,-5.6e-4 -8.24e-4,-8.4e-4 -0.933044,-0.38715 -1.714961,-1.11488 -2.132366,-2.04821 l -4.47e-4,-0.001 c -0.870149,-1.9465 0.14855,-4.31467 2.352718,-5.12031 1.89e-4,-7e-5 3.77e-4,-1.4e-4 5.66e-4,-2.1e-4 2.204177,-0.80562 4.520302,0.34653 5.102982,2.39378 z"
           id="path2075" />
        <path
           style="opacity:1;fill:#3310bb;fill-opacity:1;stroke:none;stroke-width:0.160502px;stroke-opacity:1"
           d="m 90.817082,126.83784 c -0.07977,1.23144 -0.657938,2.38576 -1.51875,3.22648 -1.04e-4,-1e-5 -2.08e-4,-1e-5 -3.13e-4,-1e-5 -0.863259,0.84312 -1.960671,1.32905 -3.090242,1.37859 -1.34e-4,1e-5 -2.68e-4,1e-5 -4.01e-4,2e-5 -0.547146,0.024 -1.089002,-0.0542 -1.607749,-0.22606 -0.559488,-0.18944 -1.097985,-0.4883 -1.581197,-0.88804 -1.04e-4,1e-5 -2.07e-4,2e-5 -3.11e-4,3e-5 -0.927411,-0.7673 -1.601934,-1.86844 -1.786551,-3.08869 l -1.63e-4,-0.001 c -0.294273,-1.9462 0.76264,-3.83021 2.654774,-4.68171 0,0 0,0 0,0 0.58674,-0.25935 1.243104,-0.41619 1.937006,-0.44332 1.66e-4,-1e-5 3.32e-4,-1e-5 4.98e-4,-2e-5 3.048364,-0.11917 5.159176,2.16456 4.993399,4.72381 z"
           id="path2077" />
        <path
           style="opacity:1;fill:#4416a5;fill-opacity:1;stroke:none;stroke-width:0.188587px;stroke-opacity:1"
           d="m 106.17576,130.2762 c -0.51844,1.35722 -1.57123,2.457 -2.83852,3.1003 l -3.6e-4,0.001 c -1.27144,0.64543 -2.68405,0.80339 -3.978972,0.45119 -9.8e-5,-3e-5 -1.96e-4,-5e-5 -2.94e-4,-8e-5 -1.294618,-0.35211 -2.423071,-1.20065 -3.189938,-2.39472 -6.8e-5,-2e-5 -1.36e-4,-3e-5 -2.05e-4,-4e-5 -0.763397,-1.1888 -1.126936,-2.66698 -0.900619,-4.09902 l 1.71e-4,-10e-4 c 0.473321,-2.99352 3.644374,-5.01827 6.967317,-4.12064 8e-5,2e-5 1.6e-4,5e-5 2.4e-4,7e-5 3.44692,0.93231 5.01839,4.24297 3.94118,7.06298 z"
           id="path2079" />
        <path
           style="opacity:1;fill:#551b8e;fill-opacity:1;stroke:none;stroke-width:0.216671px;stroke-opacity:1"
           d="m 120.16336,137.50662 c -0.91015,1.40275 -2.35515,2.37865 -3.95322,2.77304 -1.60165,0.39449 -3.24968,0.18575 -4.62969,-0.56756 -1.37907,-0.75279 -2.43068,-2.01661 -2.96276,-3.56252 -0.53026,-1.54062 -0.51277,-3.28558 0.15003,-4.81525 1.38403,-3.19424 5.43289,-4.53212 8.83431,-2.68528 3.5e-4,1.9e-4 7.1e-4,3.8e-4 0.001,5.8e-4 3.40139,1.84687 4.45748,5.93298 2.56027,8.85699 z"
           id="path2081" />
        <path
           style="opacity:1;fill:#672178;fill-opacity:1;stroke:none;stroke-width:0.244756px;stroke-opacity:1"
           d="m 132.74641,147.07116 c -1.23542,1.42887 -3.00526,2.2973 -4.88169,2.46974 -1.87777,0.17333 -3.72484,-0.35853 -5.16941,-1.47468 -1.4447,-1.11626 -2.40573,-2.75261 -2.7114,-4.59732 -0.30378,-1.83795 0.0666,-3.77945 1.11207,-5.34914 2.18364,-3.27869 6.92066,-3.99364 10.33135,-1.36107 3.47912,2.68538 3.88304,7.34702 1.31908,10.31247 z"
           id="path2083" />
      </g>
      <g
         id="g2101"
         transform="rotate(-84.05234,60.028765,114.26761)"
         inkscape:transform-center-x="15.869806"
         inkscape:transform-center-y="-53.118206">
        <path
           style="opacity:1;fill:#0000ff;fill-opacity:1;stroke:none;stroke-width:0.0762476px;stroke-opacity:1"
           d="m 48.047366,144.20106 c 0.38146,0.44917 0.564145,1.0362 0.513401,1.62773 9.7e-5,4e-4 1.94e-4,8e-4 2.9e-4,0.001 -0.05069,0.59182 -0.330371,1.14261 -0.778687,1.53617 -1.94e-4,1.7e-4 -3.89e-4,3.4e-4 -5.84e-4,5.2e-4 -0.448292,0.39355 -1.032024,0.59926 -1.625666,0.57318 -1.39e-4,1.3e-4 -2.77e-4,2.5e-4 -4.16e-4,3.7e-4 -0.594007,-0.027 -1.151483,-0.28424 -1.546077,-0.71966 l -7.35e-4,-8.1e-4 c -0.822327,-0.90808 -0.729283,-2.33939 0.23967,-3.19185 2.58e-4,-2.3e-4 5.16e-4,-4.6e-4 7.74e-4,-6.9e-4 0.963926,-0.84657 2.403567,-0.76163 3.19803,0.17385 z"
           id="path2087" />
        <path
           style="opacity:1;fill:#1105e8;fill-opacity:1;stroke:none;stroke-width:0.104332px;stroke-opacity:1"
           d="m 60.807018,134.92322 c 0.412718,0.69001 0.527875,1.52166 0.340391,2.30242 6.7e-5,3.9e-4 1.33e-4,7.8e-4 2e-4,0.001 -0.187717,0.78178 -0.663832,1.45897 -1.330389,1.89463 -2.11e-4,1.4e-4 -4.23e-4,2.8e-4 -6.35e-4,4.2e-4 -0.66655,0.43566 -1.480067,0.60123 -2.273634,0.45762 -1.21e-4,8e-5 -2.42e-4,1.7e-4 -3.62e-4,2.5e-4 -0.792819,-0.14355 -1.506105,-0.58444 -1.97025,-1.24202 l -6.31e-4,-8.9e-4 c -0.966904,-1.37064 -0.572101,-3.31997 0.926284,-4.29781 2.28e-4,-1.5e-4 4.57e-4,-3e-4 6.85e-4,-4.5e-4 1.498199,-0.97769 3.447824,-0.55398 4.308341,0.88467 z"
           id="path2089" />
        <path
           style="opacity:1;fill:#220bd2;fill-opacity:1;stroke:none;stroke-width:0.132417px;stroke-opacity:1"
           d="m 75.217748,128.55311 c 0.279028,0.98036 0.148743,2.03938 -0.309627,2.93512 -1.36e-4,4e-5 -2.72e-4,8e-5 -4.08e-4,1.3e-4 -0.459501,0.89813 -1.21935,1.58003 -2.135316,1.91744 -1.64e-4,6e-5 -3.28e-4,1.2e-4 -4.92e-4,1.8e-4 -0.915975,0.33742 -1.941683,0.31177 -2.876786,-0.0761 -2.74e-4,-2.8e-4 -5.49e-4,-5.6e-4 -8.24e-4,-8.4e-4 -0.933044,-0.38715 -1.714961,-1.11488 -2.132366,-2.04821 l -4.47e-4,-0.001 c -0.870149,-1.9465 0.14855,-4.31467 2.352718,-5.12031 1.89e-4,-7e-5 3.77e-4,-1.4e-4 5.66e-4,-2.1e-4 2.204177,-0.80562 4.520302,0.34653 5.102982,2.39378 z"
           id="path2091" />
        <path
           style="opacity:1;fill:#3310bb;fill-opacity:1;stroke:none;stroke-width:0.160502px;stroke-opacity:1"
           d="m 90.817082,126.83784 c -0.07977,1.23144 -0.657938,2.38576 -1.51875,3.22648 -1.04e-4,-1e-5 -2.08e-4,-1e-5 -3.13e-4,-1e-5 -0.863259,0.84312 -1.960671,1.32905 -3.090242,1.37859 -1.34e-4,1e-5 -2.68e-4,1e-5 -4.01e-4,2e-5 -0.547146,0.024 -1.089002,-0.0542 -1.607749,-0.22606 -0.559488,-0.18944 -1.097985,-0.4883 -1.581197,-0.88804 -1.04e-4,1e-5 -2.07e-4,2e-5 -3.11e-4,3e-5 -0.927411,-0.7673 -1.601934,-1.86844 -1.786551,-3.08869 l -1.63e-4,-0.001 c -0.294273,-1.9462 0.76264,-3.83021 2.654774,-4.68171 0,0 0,0 0,0 0.58674,-0.25935 1.243104,-0.41619 1.937006,-0.44332 1.66e-4,-1e-5 3.32e-4,-1e-5 4.98e-4,-2e-5 3.048364,-0.11917 5.159176,2.16456 4.993399,4.72381 z"
           id="path2093" />
        <path
           style="opacity:1;fill:#4416a5;fill-opacity:1;stroke:none;stroke-width:0.188587px;stroke-opacity:1"
           d="m 106.17576,130.2762 c -0.51844,1.35722 -1.57123,2.457 -2.83852,3.1003 l -3.6e-4,0.001 c -1.27144,0.64543 -2.68405,0.80339 -3.978972,0.45119 -9.8e-5,-3e-5 -1.96e-4,-5e-5 -2.94e-4,-8e-5 -1.294618,-0.35211 -2.423071,-1.20065 -3.189938,-2.39472 -6.8e-5,-2e-5 -1.36e-4,-3e-5 -2.05e-4,-4e-5 -0.763397,-1.1888 -1.126936,-2.66698 -0.900619,-4.09902 l 1.71e-4,-10e-4 c 0.473321,-2.99352 3.644374,-5.01827 6.967317,-4.12064 8e-5,2e-5 1.6e-4,5e-5 2.4e-4,7e-5 3.44692,0.93231 5.01839,4.24297 3.94118,7.06298 z"
           id="path2095" />
        <path
           style="opacity:1;fill:#551b8e;fill-opacity:1;stroke:none;stroke-width:0.216671px;stroke-opacity:1"
           d="m 120.16336,137.50662 c -0.91015,1.40275 -2.35515,2.37865 -3.95322,2.77304 -1.60165,0.39449 -3.24968,0.18575 -4.62969,-0.56756 -1.37907,-0.75279 -2.43068,-2.01661 -2.96276,-3.56252 -0.53026,-1.54062 -0.51277,-3.28558 0.15003,-4.81525 1.38403,-3.19424 5.43289,-4.53212 8.83431,-2.68528 3.5e-4,1.9e-4 7.1e-4,3.8e-4 0.001,5.8e-4 3.40139,1.84687 4.45748,5.93298 2.56027,8.85699 z"
           id="path2097" />
        <path
           style="opacity:1;fill:#672178;fill-opacity:1;stroke:none;stroke-width:0.244756px;stroke-opacity:1"
           d="m 132.74641,147.07116 c -1.23542,1.42887 -3.00526,2.2973 -4.88169,2.46974 -1.87777,0.17333 -3.72484,-0.35853 -5.16941,-1.47468 -1.4447,-1.11626 -2.40573,-2.75261 -2.7114,-4.59732 -0.30378,-1.83795 0.0666,-3.77945 1.11207,-5.34914 2.18364,-3.27869 6.92066,-3.99364 10.33135,-1.36107 3.47912,2.68538 3.88304,7.34702 1.31908,10.31247 z"
           id="path2099" />
      </g>
      <g
         id="g2117"
         transform="rotate(-54.05234,52.549881,86.696956)"
         inkscape:transform-center-x="-18.751882"
         inkscape:transform-center-y="-51.149106">
        <path
           style="opacity:1;fill:#0000ff;fill-opacity:1;stroke:none;stroke-width:0.0762476px;stroke-opacity:1"
           d="m 48.047366,144.20106 c 0.38146,0.44917 0.564145,1.0362 0.513401,1.62773 9.7e-5,4e-4 1.94e-4,8e-4 2.9e-4,0.001 -0.05069,0.59182 -0.330371,1.14261 -0.778687,1.53617 -1.94e-4,1.7e-4 -3.89e-4,3.4e-4 -5.84e-4,5.2e-4 -0.448292,0.39355 -1.032024,0.59926 -1.625666,0.57318 -1.39e-4,1.3e-4 -2.77e-4,2.5e-4 -4.16e-4,3.7e-4 -0.594007,-0.027 -1.151483,-0.28424 -1.546077,-0.71966 l -7.35e-4,-8.1e-4 c -0.822327,-0.90808 -0.729283,-2.33939 0.23967,-3.19185 2.58e-4,-2.3e-4 5.16e-4,-4.6e-4 7.74e-4,-6.9e-4 0.963926,-0.84657 2.403567,-0.76163 3.19803,0.17385 z"
           id="path2103" />
        <path
           style="opacity:1;fill:#1105e8;fill-opacity:1;stroke:none;stroke-width:0.104332px;stroke-opacity:1"
           d="m 60.807018,134.92322 c 0.412718,0.69001 0.527875,1.52166 0.340391,2.30242 6.7e-5,3.9e-4 1.33e-4,7.8e-4 2e-4,0.001 -0.187717,0.78178 -0.663832,1.45897 -1.330389,1.89463 -2.11e-4,1.4e-4 -4.23e-4,2.8e-4 -6.35e-4,4.2e-4 -0.66655,0.43566 -1.480067,0.60123 -2.273634,0.45762 -1.21e-4,8e-5 -2.42e-4,1.7e-4 -3.62e-4,2.5e-4 -0.792819,-0.14355 -1.506105,-0.58444 -1.97025,-1.24202 l -6.31e-4,-8.9e-4 c -0.966904,-1.37064 -0.572101,-3.31997 0.926284,-4.29781 2.28e-4,-1.5e-4 4.57e-4,-3e-4 6.85e-4,-4.5e-4 1.498199,-0.97769 3.447824,-0.55398 4.308341,0.88467 z"
           id="path2105" />
        <path
           style="opacity:1;fill:#220bd2;fill-opacity:1;stroke:none;stroke-width:0.132417px;stroke-opacity:1"
           d="m 75.217748,128.55311 c 0.279028,0.98036 0.148743,2.03938 -0.309627,2.93512 -1.36e-4,4e-5 -2.72e-4,8e-5 -4.08e-4,1.3e-4 -0.459501,0.89813 -1.21935,1.58003 -2.135316,1.91744 -1.64e-4,6e-5 -3.28e-4,1.2e-4 -4.92e-4,1.8e-4 -0.915975,0.33742 -1.941683,0.31177 -2.876786,-0.0761 -2.74e-4,-2.8e-4 -5.49e-4,-5.6e-4 -8.24e-4,-8.4e-4 -0.933044,-0.38715 -1.714961,-1.11488 -2.132366,-2.04821 l -4.47e-4,-0.001 c -0.870149,-1.9465 0.14855,-4.31467 2.352718,-5.12031 1.89e-4,-7e-5 3.77e-4,-1.4e-4 5.66e-4,-2.1e-4 2.204177,-0.80562 4.520302,0.34653 5.102982,2.39378 z"
           id="path2107" />
        <path
           style="opacity:1;fill:#3310bb;fill-opacity:1;stroke:none;stroke-width:0.160502px;stroke-opacity:1"
           d="m 90.817082,126.83784 c -0.07977,1.23144 -0.657938,2.38576 -1.51875,3.22648 -1.04e-4,-1e-5 -2.08e-4,-1e-5 -3.13e-4,-1e-5 -0.863259,0.84312 -1.960671,1.32905 -3.090242,1.37859 -1.34e-4,1e-5 -2.68e-4,1e-5 -4.01e-4,2e-5 -0.547146,0.024 -1.089002,-0.0542 -1.607749,-0.22606 -0.559488,-0.18944 -1.097985,-0.4883 -1.581197,-0.88804 -1.04e-4,1e-5 -2.07e-4,2e-5 -3.11e-4,3e-5 -0.927411,-0.7673 -1.601934,-1.86844 -1.786551,-3.08869 l -1.63e-4,-0.001 c -0.294273,-1.9462 0.76264,-3.83021 2.654774,-4.68171 0,0 0,0 0,0 0.58674,-0.25935 1.243104,-0.41619 1.937006,-0.44332 1.66e-4,-1e-5 3.32e-4,-1e-5 4.98e-4,-2e-5 3.048364,-0.11917 5.159176,2.16456 4.993399,4.72381 z"
           id="path2109" />
        <path
           style="opacity:1;fill:#4416a5;fill-opacity:1;stroke:none;stroke-width:0.188587px;stroke-opacity:1"
           d="m 106.17576,130.2762 c -0.51844,1.35722 -1.57123,2.457 -2.83852,3.1003 l -3.6e-4,0.001 c -1.27144,0.64543 -2.68405,0.80339 -3.978972,0.45119 -9.8e-5,-3e-5 -1.96e-4,-5e-5 -2.94e-4,-8e-5 -1.294618,-0.35211 -2.423071,-1.20065 -3.189938,-2.39472 -6.8e-5,-2e-5 -1.36e-4,-3e-5 -2.05e-4,-4e-5 -0.763397,-1.1888 -1.126936,-2.66698 -0.900619,-4.09902 l 1.71e-4,-10e-4 c 0.473321,-2.99352 3.644374,-5.01827 6.967317,-4.12064 8e-5,2e-5 1.6e-4,5e-5 2.4e-4,7e-5 3.44692,0.93231 5.01839,4.24297 3.94118,7.06298 z"
           id="path2111" />
        <path
           style="opacity:1;fill:#551b8e;fill-opacity:1;stroke:none;stroke-width:0.216671px;stroke-opacity:1"
           d="m 120.16336,137.50662 c -0.91015,1.40275 -2.35515,2.37865 -3.95322,2.77304 -1.60165,0.39449 -3.24968,0.18575 -4.62969,-0.56756 -1.37907,-0.75279 -2.43068,-2.01661 -2.96276,-3.56252 -0.53026,-1.54062 -0.51277,-3.28558 0.15003,-4.81525 1.38403,-3.19424 5.43289,-4.53212 8.83431,-2.68528 3.5e-4,1.9e-4 7.1e-4,3.8e-4 0.001,5.8e-4 3.40139,1.84687 4.45748,5.93298 2.56027,8.85699 z"
           id="path2113" />
        <path
           style="opacity:1;fill:#672178;fill-opacity:1;stroke:none;stroke-width:0.244756px;stroke-opacity:1"
           d="m 132.74641,147.07116 c -1.23542,1.42887 -3.00526,2.2973 -4.88169,2.46974 -1.87777,0.17333 -3.72484,-0.35853 -5.16941,-1.47468 -1.4447,-1.11626 -2.40573,-2.75261 -2.7114,-4.59732 -0.30378,-1.83795 0.0666,-3.77945 1.11207,-5.34914 2.18364,-3.27869 6.92066,-3.99364 10.33135,-1.36107 3.47912,2.68538 3.88304,7.34702 1.31908,10.31247 z"
           id="path2115" />
      </g>
      <g
         id="g2133"
         transform="rotate(-24.05234,28.519715,-1.8894447)"
         inkscape:transform-center-x="-41.504041"
         inkscape:transform-center-y="-36.991108">
        <path
           style="opacity:1;fill:#0000ff;fill-opacity:1;stroke:none;stroke-width:0.0762476px;stroke-opacity:1"
           d="m 48.047366,144.20106 c 0.38146,0.44917 0.564145,1.0362 0.513401,1.62773 9.7e-5,4e-4 1.94e-4,8e-4 2.9e-4,0.001 -0.05069,0.59182 -0.330371,1.14261 -0.778687,1.53617 -1.94e-4,1.7e-4 -3.89e-4,3.4e-4 -5.84e-4,5.2e-4 -0.448292,0.39355 -1.032024,0.59926 -1.625666,0.57318 -1.39e-4,1.3e-4 -2.77e-4,2.5e-4 -4.16e-4,3.7e-4 -0.594007,-0.027 -1.151483,-0.28424 -1.546077,-0.71966 l -7.35e-4,-8.1e-4 c -0.822327,-0.90808 -0.729283,-2.33939 0.23967,-3.19185 2.58e-4,-2.3e-4 5.16e-4,-4.6e-4 7.74e-4,-6.9e-4 0.963926,-0.84657 2.403567,-0.76163 3.19803,0.17385 z"
           id="path2119" />
        <path
           style="opacity:1;fill:#1105e8;fill-opacity:1;stroke:none;stroke-width:0.104332px;stroke-opacity:1"
           d="m 60.807018,134.92322 c 0.412718,0.69001 0.527875,1.52166 0.340391,2.30242 6.7e-5,3.9e-4 1.33e-4,7.8e-4 2e-4,0.001 -0.187717,0.78178 -0.663832,1.45897 -1.330389,1.89463 -2.11e-4,1.4e-4 -4.23e-4,2.8e-4 -6.35e-4,4.2e-4 -0.66655,0.43566 -1.480067,0.60123 -2.273634,0.45762 -1.21e-4,8e-5 -2.42e-4,1.7e-4 -3.62e-4,2.5e-4 -0.792819,-0.14355 -1.506105,-0.58444 -1.97025,-1.24202 l -6.31e-4,-8.9e-4 c -0.966904,-1.37064 -0.572101,-3.31997 0.926284,-4.29781 2.28e-4,-1.5e-4 4.57e-4,-3e-4 6.85e-4,-4.5e-4 1.498199,-0.97769 3.447824,-0.55398 4.308341,0.88467 z"
           id="path2121" />
        <path
           style="opacity:1;fill:#220bd2;fill-opacity:1;stroke:none;stroke-width:0.132417px;stroke-opacity:1"
           d="m 75.217748,128.55311 c 0.279028,0.98036 0.148743,2.03938 -0.309627,2.93512 -1.36e-4,4e-5 -2.72e-4,8e-5 -4.08e-4,1.3e-4 -0.459501,0.89813 -1.21935,1.58003 -2.135316,1.91744 -1.64e-4,6e-5 -3.28e-4,1.2e-4 -4.92e-4,1.8e-4 -0.915975,0.33742 -1.941683,0.31177 -2.876786,-0.0761 -2.74e-4,-2.8e-4 -5.49e-4,-5.6e-4 -8.24e-4,-8.4e-4 -0.933044,-0.38715 -1.714961,-1.11488 -2.132366,-2.04821 l -4.47e-4,-0.001 c -0.870149,-1.9465 0.14855,-4.31467 2.352718,-5.12031 1.89e-4,-7e-5 3.77e-4,-1.4e-4 5.66e-4,-2.1e-4 2.204177,-0.80562 4.520302,0.34653 5.102982,2.39378 z"
           id="path2123" />
        <path
           style="opacity:1;fill:#3310bb;fill-opacity:1;stroke:none;stroke-width:0.160502px;stroke-opacity:1"
           d="m 90.817082,126.83784 c -0.07977,1.23144 -0.657938,2.38576 -1.51875,3.22648 -1.04e-4,-1e-5 -2.08e-4,-1e-5 -3.13e-4,-1e-5 -0.863259,0.84312 -1.960671,1.32905 -3.090242,1.37859 -1.34e-4,1e-5 -2.68e-4,1e-5 -4.01e-4,2e-5 -0.547146,0.024 -1.089002,-0.0542 -1.607749,-0.22606 -0.559488,-0.18944 -1.097985,-0.4883 -1.581197,-0.88804 -1.04e-4,1e-5 -2.07e-4,2e-5 -3.11e-4,3e-5 -0.927411,-0.7673 -1.601934,-1.86844 -1.786551,-3.08869 l -1.63e-4,-0.001 c -0.294273,-1.9462 0.76264,-3.83021 2.654774,-4.68171 0,0 0,0 0,0 0.58674,-0.25935 1.243104,-0.41619 1.937006,-0.44332 1.66e-4,-1e-5 3.32e-4,-1e-5 4.98e-4,-2e-5 3.048364,-0.11917 5.159176,2.16456 4.993399,4.72381 z"
           id="path2125" />
        <path
           style="opacity:1;fill:#4416a5;fill-opacity:1;stroke:none;stroke-width:0.188587px;stroke-opacity:1"
           d="m 106.17576,130.2762 c -0.51844,1.35722 -1.57123,2.457 -2.83852,3.1003 l -3.6e-4,0.001 c -1.27144,0.64543 -2.68405,0.80339 -3.978972,0.45119 -9.8e-5,-3e-5 -1.96e-4,-5e-5 -2.94e-4,-8e-5 -1.294618,-0.35211 -2.423071,-1.20065 -3.189938,-2.39472 -6.8e-5,-2e-5 -1.36e-4,-3e-5 -2.05e-4,-4e-5 -0.763397,-1.1888 -1.126936,-2.66698 -0.900619,-4.09902 l 1.71e-4,-10e-4 c 0.473321,-2.99352 3.644374,-5.01827 6.967317,-4.12064 8e-5,2e-5 1.6e-4,5e-5 2.4e-4,7e-5 3.44692,0.93231 5.01839,4.24297 3.94118,7.06298 z"
           id="path2127" />
        <path
           style="opacity:1;fill:#551b8e;fill-opacity:1;stroke:none;stroke-width:0.216671px;stroke-opacity:1"
           d="m 120.16336,137.50662 c -0.91015,1.40275 -2.35515,2.37865 -3.95322,2.77304 -1.60165,0.39449 -3.24968,0.18575 -4.62969,-0.56756 -1.37907,-0.75279 -2.43068,-2.01661 -2.96276,-3.56252 -0.53026,-1.54062 -0.51277,-3.28558 0.15003,-4.81525 1.38403,-3.19424 5.43289,-4.53212 8.83431,-2.68528 3.5e-4,1.9e-4 7.1e-4,3.8e-4 0.001,5.8e-4 3.40139,1.84687 4.45748,5.93298 2.56027,8.85699 z"
           id="path2129" />
        <path
           style="opacity:1;fill:#672178;fill-opacity:1;stroke:none;stroke-width:0.244756px;stroke-opacity:1"
           d="m 132.74641,147.07116 c -1.23542,1.42887 -3.00526,2.2973 -4.88169,2.46974 -1.87777,0.17333 -3.72484,-0.35853 -5.16941,-1.47468 -1.4447,-1.11626 -2.40573,-2.75261 -2.7114,-4.59732 -0.30378,-1.83795 0.0666,-3.77945 1.11207,-5.34914 2.18364,-3.27869 6.92066,-3.99364 10.33135,-1.36107 3.47912,2.68538 3.88304,7.34702 1.31908,10.31247 z"
           id="path2131" />
      </g>
    </g>
  </g>
</svg>
