<?xml version="1.0" encoding="UTF-8" standalone="no"?>
<!-- Created with Inkscape (http://www.inkscape.org/) -->

<svg
   width="297mm"
   height="210mm"
   viewBox="0 0 297 210"
   version="1.1"
   id="svg810"
   inkscape:version="1.1.2 (0a00cf5339, 2022-02-04)"
   sodipodi:docname="logo tpl 070723.svg"
   xmlns:inkscape="http://www.inkscape.org/namespaces/inkscape"
   xmlns:sodipodi="http://sodipodi.sourceforge.net/DTD/sodipodi-0.dtd"
   xmlns="http://www.w3.org/2000/svg"
   xmlns:svg="http://www.w3.org/2000/svg">
  <sodipodi:namedview
     id="namedview812"
     pagecolor="#ffffff"
     bordercolor="#000000"
     borderopacity="0.25"
     inkscape:pageshadow="2"
     inkscape:pageopacity="0.0"
     inkscape:pagecheckerboard="0"
     inkscape:document-units="mm"
     showgrid="false"
     inkscape:snap-global="true"
     inkscape:snap-nodes="false"
     inkscape:snap-bbox="true"
     inkscape:zoom="0.6667291"
     inkscape:cx="338.96826"
     inkscape:cy="236.97781"
     inkscape:window-width="1920"
     inkscape:window-height="1011"
     inkscape:window-x="0"
     inkscape:window-y="32"
     inkscape:window-maximized="1"
     inkscape:current-layer="layer1" />
  <defs
     id="defs807">
    <inkscape:path-effect
       effect="slice"
       start_point="106.8379,43.331198"
       end_point="106.8379,56.957254"
       center_point="106.8379,50.144226"
       id="path-effect28661"
       is_visible="true"
       lpeversion="1"
       allow_transforms="true" />
    <inkscape:path-effect
       effect="slice"
       start_point="109.159,61.009043"
       end_point="109.159,74.635084"
       center_point="109.159,67.822063"
       id="path-effect14556"
       is_visible="true"
       lpeversion="1"
       allow_transforms="true" />
  </defs>
  <g
     inkscape:label="Layer 1"
     inkscape:groupmode="layer"
     id="layer1">
    <path
       id="path14528"
       style="font-size:22.5778px;font-family:'AR PL UKai CN';-inkscape-font-specification:'AR PL UKai CN';fill:#000000;fill-opacity:1;stroke:none;stroke-width:1.40275"
       d="m 117.91241,63.614804 v 3.274005 c 5.14344,0 7.71514,2.027116 7.71514,6.079496 v 11.1316 h 8.885 v -11.1316 c 0,-0.126677 6.5e-4,-0.252657 0.008,-0.375349 0.15068,-3.680371 2.56162,-5.579949 7.23295,-5.698676 0.0105,8.3e-5 0.0215,-8.1e-5 0.0323,0 6.36756,0.04878 11.4281,1.3302 15.17273,3.852095 3.58482,2.415844 5.37537,5.532158 5.37537,9.350752 0,5.45516 -2.14119,9.663414 -6.42743,12.624764 -3.97444,2.805514 -8.96388,4.20825 -14.96452,4.20825 h -6.42743 V 85.97115 h -8.885 v 40.53457 c 0,4.05239 -2.5717,6.0795 -7.71514,6.0795 v 3.27125 h 19.80839 v -4.0466 c -2.13445,-0.9291 -3.20825,-2.69363 -3.20825,-5.30415 v -26.30158 h 6.42743 c 10.20894,0 18.00383,-1.910201 23.38104,-5.728813 4.59791,-3.273081 6.89594,-8.06582 6.89594,-14.3782 0,-4.597894 -2.26094,-8.572363 -6.7809,-11.923384 -4.05235,-3.039284 -9.23297,-4.558939 -15.54531,-4.558939 h -5.14525 -1.51784 z m 51.66893,52.603166 c -5.53311,8.33858 -9.43059,13.13131 -11.69052,14.3782 -2.41584,1.32483 -5.18143,1.98905 -8.29871,1.98905 h -7.36445 c -0.97019,0 -1.84843,-0.0723 -2.63563,-0.21643 v 3.4877 h 2.63563 20.69059 l 8.64941,-18.70152 z" />
    <g
       id="path14530"
       transform="matrix(1.4027512,0,0,1.4027512,-434.37476,-243.33033)"
       style="fill:#000000;fill-opacity:1;stroke:none;stroke-width:1.00157;stroke-miterlimit:4;stroke-dasharray:none;stroke-opacity:1">
      <path
         style="color:#000000;-inkscape-font-specification:'AR PL UKai CN';fill:#000000;fill-opacity:1;stroke:none;stroke-width:1.00157;stroke-miterlimit:4;stroke-dasharray:none;stroke-opacity:1"
         d="m 380.91211,230.58789 -3.49805,10.57813 2.25,0.91601 c 3.11112,-6.11111 6.22092,-9.16211 9.33203,-9.16211 h 20.67579 v 11.46875 h 0.38085 c 2.17299,0 4.15837,-0.25931 5.95899,-0.77539 v -10.69336 h 20.67773 c 3.11112,0 6.21896,3.051 9.33008,9.16211 l 2.25195,-0.91601 -3.5,-10.57813 H 412.8418 Z m 35.09961,15.78125 c -1.83821,0.23488 -3.82433,0.35352 -5.95899,0.35352 h -0.38085 v 28.69531 c 0,2.88889 -1.83334,4.33398 -5.5,4.33398 h -4.16211 v 2.33203 h 12.83203 12.83203 v -2.33203 h -4.16211 c -3.66667,0 -5.5,-1.44509 -5.5,-4.33398 z"
         id="path20646" />
      <path
         style="color:#000000;-inkscape-font-specification:'AR PL UKai CN';fill:#000000;fill-opacity:1;stroke:none;stroke-width:1.00157;stroke-miterlimit:4;stroke-dasharray:none;stroke-opacity:1"
         d="m 380.55078,230.08789 -0.11328,0.34375 -3.64453,11.02148 3.10742,1.26563 0.20898,-0.41016 c 1.54027,-3.0255 3.07459,-5.27396 4.57032,-6.74218 1.49572,-1.46823 2.9243,-2.14649 4.3164,-2.14649 h 20.17578 v 11.46875 h 0.88086 c 2.21277,0 4.24611,-0.26424 6.09766,-0.79492 l 0.36133,-0.10352 v -10.57031 h 20.17773 c 1.39212,0 2.81921,0.67827 4.31446,2.14649 1.49524,1.46821 3.03003,3.71664 4.57031,6.74218 l 0.20898,0.41016 3.10938,-1.26563 -3.75977,-11.36523 H 412.8418 Z m 0.72266,1 h 31.56836 31.56836 l 3.24023,9.79102 -1.41797,0.57812 c -1.49427,-2.86391 -2.99229,-5.09621 -4.52734,-6.60351 -1.61424,-1.58506 -3.29662,-2.4336 -5.01563,-2.4336 h -21.17773 v 10.75977 c -1.62676,0.43193 -3.39006,0.6838 -5.33985,0.69336 v -11.45313 h -21.17578 c -1.719,0 -3.40089,0.8466 -5.01562,2.43164 -1.53523,1.50701 -3.03525,3.74037 -4.5293,6.60352 l -1.41601,-0.57617 z m 35.23828,14.71289 -0.5625,0.0723 c -1.81429,0.23182 -3.78035,0.34961 -5.89649,0.34961 h -0.88086 V 275.418 c 0,1.33867 -0.39418,2.23533 -1.18359,2.85742 -0.7894,0.62209 -2.04876,0.97656 -3.81641,0.97656 h -4.6621 v 3.33203 h 13.33203 13.33203 v -3.33203 h -4.66211 c -1.76765,0 -3.027,-0.35447 -3.81641,-0.97656 -0.7894,-0.62209 -1.18359,-1.51875 -1.18359,-2.85742 z m -1,1.09766 v 28.51953 c 0,1.55021 0.52248,2.8199 1.5664,3.64258 1.04393,0.82267 2.53458,1.1914 4.4336,1.1914 h 3.66211 v 1.33203 H 412.8418 400.50977 v -1.33203 h 3.6621 c 1.89902,0 3.38967,-0.36873 4.4336,-1.1914 1.04393,-0.82268 1.5664,-2.09237 1.5664,-3.64258 v -28.20313 c 1.9043,-0.004 3.66451,-0.12502 5.33985,-0.3164 z"
         id="path20643" />
    </g>
  </g>
</svg>
